<?xml version="1.0" encoding="utf-8" ?>
<svg xmlns="http://www.w3.org/2000/svg" xmlns:xlink="http://www.w3.org/1999/xlink" width="519" height="292">
	<path fill="#FBC985" transform="scale(0.285156 0.285156)" d="M0 0L1099.76 0L1150.56 0L1818.44 0C1819.24 1.26739 1819.72 2.42496 1819.84 3.92188C1821.04 18.9951 1819.99 34.9834 1820 50.1286L1820 146.203L1820 681.14L1820.02 820.545C1820.02 832.123 1821.42 866.495 1819.75 875.546C1819.57 876.501 1819.26 877.333 1818.82 878.19C1821.05 883.371 1821.3 919.952 1819.4 925.399C1819.17 926.054 1818.86 926.639 1818.5 927.23C1819.28 928.466 1819.73 929.582 1819.85 931.041C1821.43 949.872 1820.07 970.027 1820.06 988.986C1820.05 998.337 1821.46 1012.06 1819.76 1020.87C1819.54 1021.99 1819.05 1023.04 1818.44 1024L741.633 1024L692.048 1024L0 1024L0 155.641L0 108.75L0 0Z"/>
	<path fill="#FDE192" transform="scale(0.285156 0.285156)" d="M0 0L1099.76 0C1100.11 2.69327 1099.02 4.70925 1098.07 7.17493C1083.04 45.9188 1066.57 84.2027 1051.08 122.777C1019.93 199.863 989.229 277.134 958.991 354.585L935.068 414.241C932.207 421.552 927.367 430.785 926.389 438.485C919.928 438.171 921.409 440.643 917.457 441.523C915.684 441.918 912.343 441.317 910.431 441.266C908.518 441.214 905.686 440.823 903.888 441.453C899.833 442.874 891.915 447.532 888.636 450.372C887.748 451.141 887.001 452.124 886.291 453.055C884.633 453.35 883.28 453.438 881.599 453.295L879.123 457.392C875.881 457.976 874.548 457.99 872.092 460.266C871.725 461.444 870.92 465.414 870.004 465.989C865.434 468.854 864.637 464.503 862.046 472.194C860.588 472.055 859.994 471.574 858.841 470.748C853.922 472.658 854.39 477.261 851.392 480.414C849.784 482.106 846.631 482.413 844.964 484.236C845.174 487.825 845.061 488.676 843.15 491.72C838.536 495.04 833.94 492.038 830.968 497.852C830.855 501.252 833.867 502.563 834.157 504.919C834.737 509.645 822.013 513.284 830.002 521.199C830.929 522.118 832.137 522.722 833.195 523.461C837.201 526.258 837.132 530.608 843.02 530.089C846.732 527.883 848.821 524.113 851.206 520.625C850.431 542.87 858.091 559.497 871.579 576.611C869.49 583.278 865.976 589.384 863.906 596.012C865.191 598.067 866.432 600.514 868.918 601.216C871.097 601.832 873.745 602.077 876.007 602.036C883.833 611.128 892.087 619.47 902.259 625.954C897.776 639.107 891.577 651.53 886.307 664.368C881.107 677.036 872.121 704.632 864.351 714.862C858.49 710.559 851.268 703.858 843.639 703.494C838.851 703.265 835.985 705.779 832.761 708.863L820.788 699.958C813.34 693.415 805.902 684.464 797.791 679.051C786.284 679.675 779.183 676.536 769.842 684.856C779.234 714.356 777.325 733.344 803.845 753.458C817.388 762.357 830.817 769.046 846.894 772.154C836.817 794.528 828.225 817.839 818.666 840.476L741.633 1024L692.048 1024L0 1024L0 155.641L0 108.75L0 0Z"/>
	<path fill="#ECA69D" transform="scale(0.285156 0.285156)" d="M0 0L1099.76 0C1100.11 2.69327 1099.02 4.70925 1098.07 7.17493C1083.04 45.9188 1066.57 84.2027 1051.08 122.777C1019.93 199.863 989.229 277.134 958.991 354.585L935.068 414.241C932.207 421.552 927.367 430.785 926.389 438.485C919.928 438.171 921.409 440.643 917.457 441.523C915.684 441.918 912.343 441.317 910.431 441.266C908.518 441.214 905.686 440.823 903.888 441.453C899.833 442.874 891.915 447.532 888.636 450.372C887.748 451.141 887.001 452.124 886.291 453.055C884.633 453.35 883.28 453.438 881.599 453.295L879.123 457.392C875.881 457.976 874.548 457.99 872.092 460.266C871.725 461.444 870.92 465.414 870.004 465.989C865.434 468.854 864.637 464.503 862.046 472.194C860.588 472.055 859.994 471.574 858.841 470.748C853.922 472.658 854.39 477.261 851.392 480.414C849.784 482.106 846.631 482.413 844.964 484.236C832.186 481.614 808.846 470.326 795.96 465.163L726.826 436.947C712.569 431.16 697.973 425.978 683.969 419.597C680.905 418.201 677.69 416.872 675.453 414.264C679.667 404.715 685.873 385.993 683.918 375.751C684.019 370.11 714.534 355.454 719.928 351.475C726.762 346.434 732.735 340.406 737.239 333.161C746.913 317.601 746.026 299.573 742.065 282.34C736.165 256.667 718.557 230.711 696.043 216.803C685.666 210.393 673.989 207.295 661.951 205.928C612.377 200.303 597.871 233.54 557.058 246.348C531.158 254.476 499.384 253.621 471.889 260.294C462.06 262.68 452.31 265.477 446.802 274.551L431.298 281.375C415.864 289.754 400.145 298.191 386.291 309.062C372.546 306.264 358.257 299.113 345.108 293.966L263.737 261.794L98.7902 196.148C65.92 183.044 31.8646 170.953 0 155.641L0 108.75L0 0Z"/>
	<path fill="#FEFEFD" transform="scale(0.285156 0.285156)" d="M0 108.75C32.0604 119.441 63.3334 133.613 94.6866 146.226L277.556 219.886L382.651 261.9C396.578 267.379 418.91 274.121 431.298 281.375C415.864 289.754 400.145 298.191 386.291 309.062C372.546 306.264 358.257 299.113 345.108 293.966L263.737 261.794L98.7902 196.148C65.92 183.044 31.8646 170.953 0 155.641L0 108.75Z"/>
	<path fill="#FEFEFD" transform="scale(0.285156 0.285156)" d="M683.918 375.751C706.118 379.807 727.45 391.573 748.39 399.778C779.222 411.859 809.759 424.531 840.431 437.002C854.033 442.533 868.247 447.248 881.599 453.295L879.123 457.392C875.881 457.976 874.548 457.99 872.092 460.266C871.725 461.444 870.92 465.414 870.004 465.989C865.434 468.854 864.637 464.503 862.046 472.194C860.588 472.055 859.994 471.574 858.841 470.748C853.922 472.658 854.39 477.261 851.392 480.414C849.784 482.106 846.631 482.413 844.964 484.236C832.186 481.614 808.846 470.326 795.96 465.163L726.826 436.947C712.569 431.16 697.973 425.978 683.969 419.597C680.905 418.201 677.69 416.872 675.453 414.264C679.667 404.715 685.873 385.993 683.918 375.751Z"/>
	<path transform="scale(0.285156 0.285156)" d="M446.802 274.551C452.31 265.477 462.06 262.68 471.889 260.294C499.384 253.621 531.158 254.476 557.058 246.348C597.871 233.54 612.377 200.303 661.951 205.928C673.989 207.295 685.666 210.393 696.043 216.803C718.557 230.711 736.165 256.667 742.065 282.34C746.026 299.573 746.913 317.601 737.239 333.161C732.735 340.406 726.762 346.434 719.928 351.475C714.534 355.454 684.019 370.11 683.918 375.751C685.873 385.993 679.667 404.715 675.453 414.264C670.024 433.787 657.272 451.695 640.352 462.684C636.432 472.846 631.258 482.397 621.675 488.259C598.996 502.132 572.312 495.963 548.377 489.971C548.406 493.328 546.098 502.621 547.397 504.917C548.842 507.469 551.828 509.611 552.358 512.629C552.435 513.067 552.633 514.341 552.499 514.781C552.184 515.812 527.563 559.901 526.034 562.009C525.214 562.424 524.383 562.819 523.542 563.192C511.632 568.445 495.788 563.409 484.272 558.858C485.664 569.488 485.748 580.563 486.486 591.275L491.589 663.269C502.989 657.211 513.227 648.617 525.35 643.972C529.574 634.176 530.734 623.104 534.017 612.97C536.741 604.561 548.906 579.721 556.724 576.13C558.547 575.293 559.833 575.449 561.693 576.23C564.039 577.215 565.021 579.62 565.987 581.789L566.379 582.684C568.589 581.375 587.355 559.949 593.261 555.092C596.358 552.545 600.646 549.66 604.875 550.278C607.749 550.698 609.263 552.473 610.972 554.605C612.398 556.384 615.455 555.527 616.978 556.985C622.67 562.436 619.531 574.151 619.729 581.304C621.258 582.765 622.135 583.749 622.878 585.745C619.94 618.195 610.399 636.909 588.72 661.251C576.867 674.562 564.457 681.892 546.429 682.962C548.754 693.124 548.804 703.494 547.09 713.73C531.702 725.897 513.417 735.689 496.533 745.686C497.957 764.884 499.737 784.054 501.873 803.186C502.962 812.769 505.309 823.514 505.434 833.032C505.455 834.621 504.817 836.321 504.118 837.731C503.989 837.991 503.851 838.247 503.717 838.506C506.661 844.435 548.099 855.769 557.257 860.694C561.627 863.045 566.876 867.087 568.155 872.155C568.719 874.389 568.261 876.645 567.087 878.605C560.447 889.695 537.519 895.22 525.777 898.426C521.939 917.147 512.299 924.268 498.289 935.481C493.684 939.168 489.608 943.516 484.888 947.063C445.2 976.887 275.926 945.036 223.402 937.647C219.078 929.83 216.848 922.208 214.806 913.602C199.724 919.413 179.623 923.554 167.048 934.205C158.739 941.242 161.118 951.401 148.897 956.858C141.103 960.339 133.302 961.256 125.288 957.99C121.831 956.582 119.377 954.389 117.979 950.867C115.078 943.561 117.896 935.293 120.85 928.486C130.719 905.74 165.392 850.867 184.118 834.77C186.865 832.408 189.944 831.038 193.282 829.71C207.541 834.738 219.605 846.156 231.49 855.304C221.581 840.305 215.878 827.103 215.853 808.674L207.688 803.654C214.314 784.01 218.624 763.797 225.87 744.233C231.933 727.864 249.314 697.347 251.657 683.046C254.248 667.241 253.68 647.089 254.495 630.597C257.261 574.607 258.961 524.985 275.603 470.734L267.708 462.875C293.096 404.406 336.91 348.942 386.291 309.062C400.145 298.191 415.864 289.754 431.298 281.375L446.802 274.551Z"/>
	<path fill="#FEFEFD" transform="scale(0.285156 0.285156)" d="M402.095 536.724C403.171 536.84 403.832 537.27 404.522 538.103C406.952 541.04 408.827 545.279 410.866 548.553C414.602 554.554 418.697 560.493 423.056 566.06C432.029 577.518 442.936 588.854 455.601 596.219C452.256 620.815 444.693 645.09 439.259 669.31C437.851 649.804 440.521 629.86 435.976 610.57C432.779 597.001 424.902 584.82 412.865 577.517C403.172 571.636 387.156 568.261 375.895 571.124L375.007 572.88C375.874 574.72 376.268 574.833 378.332 575.155C382.034 575.732 386.107 575.118 389.876 575.263C399.632 575.637 409.765 580.37 416.824 586.995C423.203 593.084 427.84 600.767 430.254 609.25C437.014 632.282 433.104 668.454 433.877 693.408C423.523 697.839 414.094 705.839 408.963 716.008C407.486 718.934 404.852 724.797 405.905 727.989C410.837 726.674 416.646 713.877 419.898 709.59C421.909 706.941 424.468 704.644 426.912 702.403C424.172 707.861 421.462 713.334 418.781 718.822C417.756 720.966 417.386 721.878 418.19 724.164L419.547 724.414C425.822 720.808 433.06 702.665 437.668 695.687C455.667 687.438 473.379 678.579 490.776 669.126C501.922 662.927 512.612 655.744 524.085 650.172C527.978 653.624 531.012 657.238 533.485 661.846C539.012 672.144 546.46 696.76 542.705 707.786C541.792 710.466 540.562 711.841 538.056 713.098C536.25 711.3 528.764 675.79 524.231 667.642C522.982 665.396 522.002 664.212 519.499 663.489L518.236 664.613C517.885 668.859 523.377 676.793 524.89 681.334C528.736 692.882 530.534 705.272 533.563 717.077C502.683 735.823 471.851 753.861 439.268 769.541C431.251 773.231 422.952 777.625 414.477 780.075C408.472 781.81 403.488 781.835 397.959 778.736C370.968 763.606 358.635 692.802 354.844 663.347C353.716 654.574 352.861 634.735 350.4 627.509C349.853 625.905 349.571 625.875 348.034 625.239L346.335 626.163C342.648 638.579 360.994 722.768 366.4 738.095C371.746 753.252 382.026 777.599 397.456 784.735C406.143 788.752 414.128 785.944 422.527 782.89L426.237 787.483C426.45 788.762 426.876 789.675 426.24 790.877C422.182 798.554 359.895 816.83 349.371 819.211C304.002 829.475 254.254 826.427 214.187 801.154C216.902 783.357 223.92 764.42 230.263 747.544C255.091 681.486 297.55 601.47 356.305 560.402C370.433 550.527 386.461 543.819 402.095 536.724Z"/>
	<path transform="scale(0.285156 0.285156)" d="M385.661 780.337C386.828 781.259 387.053 782.102 387.476 783.457C386.799 784.974 386.646 785.523 385.268 786.547C370.771 797.325 331.225 800.817 312.998 798.249C312.37 797.871 311.786 797.147 311.255 796.63C312.461 793.033 316.147 794.074 319.396 794.159C342.929 794.78 364.91 792.635 385.661 780.337Z"/>
	<path transform="scale(0.285156 0.285156)" d="M423.598 685.353C425.349 685.218 426.879 685.36 428.615 685.606L429.523 686.838C426.868 691.288 415.949 694.955 411.482 698.854L410.593 699.974L408.69 700.137L407.54 698.584C407.607 697.927 407.599 697.575 407.793 696.977C409.482 691.759 419.058 687.699 423.598 685.353Z"/>
	<path fill="#CFBDAB" transform="scale(0.285156 0.285156)" d="M412.891 803.463C413.336 803.408 413.428 803.363 413.929 803.488C424.237 806.072 480.035 863.539 488.501 874.572C496.813 885.404 504.099 897.502 502.025 911.756C500.384 923.036 494.005 934.299 484.867 941.096C476.112 947.607 465.442 950.797 454.798 952.506C397.107 961.767 286.538 942.31 226.378 932.985C223.733 926.633 221.667 920.142 220.437 913.368C218.143 900.73 218.754 874.274 226.27 863.834C227.818 861.685 229.903 860.267 232.561 859.941C240.786 858.932 256.739 871.512 265.305 875.219C285.71 884.049 307.452 890.677 328.974 896.152C339.704 898.882 351.39 900.706 361.767 904.376C364.345 905.288 366.596 906.916 368.752 908.565C385.981 919.515 418.102 934.817 438.588 935.176C440.534 935.21 441.82 935.365 443.266 933.988C439.88 929.017 425.521 928.276 419.423 926.437C404.323 921.885 389.168 915.166 375.586 907.17C388.233 909.888 428.665 920.38 439.186 917.317C439.993 917.082 440.093 916.429 440.494 915.732C438.995 913.665 437.67 913.456 435.225 912.949C429.509 911.765 423.504 911.728 417.713 910.634C371.095 901.825 273.799 884.108 238.856 853.59C226.29 842.615 222.005 827.605 220.842 811.587C224.75 813.531 228.749 815.285 232.825 816.845C292.2 839.941 356.109 828.52 412.891 803.463Z"/>
	<path fill="#5484A9" transform="scale(0.285156 0.285156)" d="M455.918 276.391C457.007 276.545 458.066 276.734 459.14 276.978C478.933 281.473 492.401 293.334 502.911 310.051C499.521 306.782 495.896 303.766 492.066 301.027C488.313 298.29 480.769 292.384 476.15 293.105C475.892 294.585 475.65 295.435 476.897 296.531C478.805 298.208 481.624 299.422 483.782 300.878C491.717 306.231 499.653 312.928 504.672 321.169C515.006 338.135 509.083 373.673 504.533 392.259C496.693 388.023 488.748 384.746 479.821 383.591C460.225 381.056 441.474 387.26 426.021 399.157C428.474 382.11 432.125 365.257 436.945 348.723C439.44 340.065 447.506 325.392 447.736 317.621C447.762 316.728 447.211 316.492 446.634 315.864L445.147 316.573C432.205 332.517 423.29 383.532 420.878 404.085C410.256 399.2 386.506 392.038 375.045 394.657C373.431 395.025 373.229 395.63 372.357 396.91C373.428 398.519 374.817 398.698 376.677 399.068C391.868 402.088 401.406 401.397 416.262 407.869C413.318 411.201 410.547 414.701 407.727 418.138C396.591 413.54 382.632 411.456 370.595 411.758C362.415 411.964 345.607 411.847 339.662 418.061C339.188 419.3 339.189 420.049 339.441 421.375C340.541 427.153 345.69 444.53 350.171 447.602C359.577 444.355 367.138 435.989 376.472 432.288C381.854 430.153 396.835 425.123 401.933 427.296C400.601 429.396 398.066 429.98 395.822 430.993C374.755 440.477 354.537 454.953 339.356 472.348C349.086 481.653 362.147 489.138 373.202 496.927C379.775 476.17 385.81 457.247 398.877 439.507C396.031 457.796 394.289 475.411 402.195 492.811C406.309 501.867 410.778 509.479 413.952 519.049C411.428 522.175 409.439 525.838 407.336 529.26C403.578 530.513 399.887 532.102 396.196 533.546C361.679 523.054 328.379 509.72 299.97 486.84C290.651 479.334 282.044 470.755 273.323 462.567C300.45 404.241 344.972 343.714 398.082 306.591C415.988 294.074 435.593 284.289 455.918 276.391Z"/>
	<path fill="#FDE192" transform="scale(0.285156 0.285156)" d="M639.875 210.929C641.487 210.713 643.107 210.558 644.732 210.464C666.838 209.213 687.591 214.245 704.46 229.194C726.92 249.098 737.932 274.451 739.74 304.027C729.873 296.639 717.792 293.759 705.636 293.503C665.471 292.66 620.498 312.295 591.752 339.896C595.025 305.055 603.911 270.438 628.767 244.416C636.062 236.778 645.296 231.29 652.468 223.471C652.275 223.535 652.081 223.597 651.888 223.663C649.802 224.38 647.67 224.99 645.692 225.987C621.844 238 604.555 265.887 596.302 290.376C589.941 309.252 584.051 335.292 588.803 355.093C590.706 363.024 594.359 370.336 597.943 377.61C593.342 376.028 588.293 374.352 584.367 371.397C572.988 362.832 568.776 341.914 567.054 328.44C563.899 303.75 566.043 279.216 581.609 259.016L581.204 257.948C578.191 258.258 577.04 259.353 575.009 261.376C571.711 265.575 568.98 269.634 566.996 274.618C556.98 299.781 559.619 334.794 570.375 359.277C559.614 347.19 551.758 333.119 545.728 318.136C543.494 312.585 533.113 275.094 530.962 273.737C528.404 278.452 531.368 288.74 532.746 293.937C540.846 324.473 556.117 360.022 584.261 377.292C590.834 381.326 598.518 381.148 602.725 383.697C603.891 384.403 603.741 384.781 604.074 386.104C596.595 390.797 590.277 394.87 584.488 401.696C582.958 400.142 581.445 398.262 579.199 397.887C577.822 397.657 576.448 397.456 575.078 397.185C531.476 388.561 524.392 333.722 503.492 302.646C491.821 285.291 476.339 275.18 455.674 271.161C488.554 256.02 527.612 261.262 561.677 249.742C590.232 240.085 609.138 216.106 639.875 210.929Z"/>
	<path fill="#FDE192" transform="scale(0.285156 0.285156)" d="M279.849 475.948C313.779 506.684 345.072 524.781 389.8 536.705L382.06 539.515L377.578 541.777C371.52 545.151 365.317 548.386 359.388 551.975L354.409 555.137C349.905 558.472 345.452 561.941 340.862 565.153L336.917 568.38L327.411 577.308L323.78 580.731L313.362 591.281L310.153 594.887L301.78 604.96L299.208 608.328L291.415 619.546L288.307 623.897L281.194 634.571L278.151 639.4L269.54 653.525L267.104 657.814C264.298 656.02 261.696 654.576 258.569 653.418C258.498 650.422 258.702 647.621 259.072 644.651C259.479 640.13 259.441 635.527 259.556 630.988C259.508 626.922 259.597 622.957 259.957 618.906L260.514 606.935L260.975 600.073L262.225 584.26C262.184 581.415 262.401 578.584 262.587 575.747L263.251 566.145L263.906 558.702C264.079 554.045 264.706 549.328 265.127 544.681L266.083 537.044C266.566 532.917 267.381 528.786 268.051 524.683L268.648 519.985L271.317 507.454L272.116 502.955L275.322 490.744L276.955 484.878L279.849 475.948Z"/>
	<path fill="#FDE192" transform="scale(0.285156 0.285156)" d="M279.849 475.948C313.779 506.684 345.072 524.781 389.8 536.705L382.06 539.515L377.578 541.777C371.52 545.151 365.317 548.386 359.388 551.975L354.409 555.137C349.905 558.472 345.452 561.941 340.862 565.153L336.917 568.38C329.634 560.223 280.871 532.161 268.051 524.683L268.648 519.985L271.317 507.454L272.116 502.955L275.322 490.744L276.955 484.878L279.849 475.948Z"/>
	<path fill="#FDE192" transform="scale(0.285156 0.285156)" d="M271.317 507.454C273.56 508.653 276.014 509.773 278.154 511.131C293.598 521.257 309.836 530.602 326.054 539.437C335.297 544.473 345.907 548.984 354.409 555.137C349.905 558.472 345.452 561.941 340.862 565.153L336.917 568.38C329.634 560.223 280.871 532.161 268.051 524.683L268.648 519.985L271.317 507.454Z"/>
	<path fill="#F0AC4E" transform="scale(0.285156 0.285156)" d="M268.648 519.985C285.597 531.242 328.669 552.788 340.862 565.153L336.917 568.38C329.634 560.223 280.871 532.161 268.051 524.683L268.648 519.985Z"/>
	<path fill="#FDE192" transform="scale(0.285156 0.285156)" d="M279.849 475.948C313.779 506.684 345.072 524.781 389.8 536.705L382.06 539.515L377.578 541.777C368.181 537.247 357.69 534.716 348.109 530.451C323.043 519.293 298.419 505.5 275.322 490.744L276.955 484.878L279.849 475.948Z"/>
	<path fill="#F0AC4E" transform="scale(0.285156 0.285156)" d="M276.955 484.878C289.878 497.966 334.268 519.577 353.062 527.407C362.224 531.224 373.787 534.151 382.06 539.515L377.578 541.777C368.181 537.247 357.69 534.716 348.109 530.451C323.043 519.293 298.419 505.5 275.322 490.744L276.955 484.878Z"/>
	<path fill="#F0AC4E" transform="scale(0.285156 0.285156)" d="M283.421 509.747C295.903 516.192 307.817 524.088 320.002 531.111C332.859 538.521 346.208 545.164 359.388 551.975L354.409 555.137C345.907 548.984 335.297 544.473 326.054 539.437C309.836 530.602 293.598 521.257 278.154 511.131C280.1 509.366 280.895 509.725 283.421 509.747Z"/>
	<path fill="#F0AC4E" transform="scale(0.285156 0.285156)" d="M271.317 507.454L272.116 502.955C275.863 505.146 279.916 507.197 283.421 509.747C280.895 509.725 280.1 509.366 278.154 511.131C276.014 509.773 273.56 508.653 271.317 507.454Z"/>
	<path fill="#FDE192" transform="scale(0.285156 0.285156)" d="M263.251 566.145C269.243 566.75 304.986 589.816 310.153 594.887L301.78 604.96L299.208 608.328L291.415 619.546L288.307 623.897L281.194 634.571L278.151 639.4L269.54 653.525L267.104 657.814C264.298 656.02 261.696 654.576 258.569 653.418C258.498 650.422 258.702 647.621 259.072 644.651C259.479 640.13 259.441 635.527 259.556 630.988C259.508 626.922 259.597 622.957 259.957 618.906L260.514 606.935L260.975 600.073L262.225 584.26C262.184 581.415 262.401 578.584 262.587 575.747L263.251 566.145Z"/>
	<path fill="#FDE192" transform="scale(0.285156 0.285156)" d="M260.514 606.935C265.211 606.478 282.221 618.707 286.439 622.168C287.105 622.714 287.707 623.28 288.307 623.897L281.194 634.571L278.151 639.4L269.54 653.525L267.104 657.814C264.298 656.02 261.696 654.576 258.569 653.418C258.498 650.422 258.702 647.621 259.072 644.651C259.479 640.13 259.441 635.527 259.556 630.988C259.508 626.922 259.597 622.957 259.957 618.906L260.514 606.935Z"/>
	<path fill="#FDE192" transform="scale(0.285156 0.285156)" d="M259.556 630.988L260.931 629.511C266.731 630.133 273.455 636.033 278.151 639.4L269.54 653.525L267.104 657.814C264.298 656.02 261.696 654.576 258.569 653.418C258.498 650.422 258.702 647.621 259.072 644.651C259.479 640.13 259.441 635.527 259.556 630.988Z"/>
	<path fill="#F0AC4E" transform="scale(0.285156 0.285156)" d="M258.569 653.418C258.498 650.422 258.702 647.621 259.072 644.651C260.897 648.862 265.712 651.166 269.54 653.525L267.104 657.814C264.298 656.02 261.696 654.576 258.569 653.418Z"/>
	<path fill="#F0AC4E" transform="scale(0.285156 0.285156)" d="M259.957 618.906C262.184 625.218 272.849 630.935 278.983 633.816C279.72 634.162 280.412 634.357 281.194 634.571L278.151 639.4C273.455 636.033 266.731 630.133 260.931 629.511L259.556 630.988C259.508 626.922 259.597 622.957 259.957 618.906Z"/>
	<path fill="#FDE192" transform="scale(0.285156 0.285156)" d="M262.225 584.26C274.349 591.925 288.086 599.288 299.208 608.328L291.415 619.546L288.307 623.897C287.707 623.28 287.105 622.714 286.439 622.168C282.221 618.707 265.211 606.478 260.514 606.935L260.975 600.073L262.225 584.26Z"/>
	<path fill="#F0AC4E" transform="scale(0.285156 0.285156)" d="M260.975 600.073C271.231 606.209 282.091 612.031 291.415 619.546L288.307 623.897C287.707 623.28 287.105 622.714 286.439 622.168C282.221 618.707 265.211 606.478 260.514 606.935L260.975 600.073Z"/>
	<path fill="#F0AC4E" transform="scale(0.285156 0.285156)" d="M262.225 584.26C262.184 581.415 262.401 578.584 262.587 575.747C262.789 576.607 262.932 578.207 263.335 578.934C265.752 583.298 295.29 600.141 301.78 604.96L299.208 608.328C288.086 599.288 274.349 591.925 262.225 584.26Z"/>
	<path fill="#FDE192" transform="scale(0.285156 0.285156)" d="M265.127 544.681C285.493 554.037 304.458 569.193 323.78 580.731L313.362 591.281L310.153 594.887C304.986 589.816 269.243 566.75 263.251 566.145L263.906 558.702C264.079 554.045 264.706 549.328 265.127 544.681Z"/>
	<path fill="#F0AC4E" transform="scale(0.285156 0.285156)" d="M263.906 558.702C274.462 569.498 299.861 580.463 313.362 591.281L310.153 594.887C304.986 589.816 269.243 566.75 263.251 566.145L263.906 558.702Z"/>
	<path fill="#F0AC4E" transform="scale(0.285156 0.285156)" d="M265.127 544.681L266.083 537.044C266.399 537.71 266.723 538.738 267.156 539.305C269.097 541.851 320.274 573.558 327.411 577.308L323.78 580.731C304.458 569.193 285.493 554.037 265.127 544.681Z"/>
	<path fill="#7D6253" transform="scale(0.285156 0.285156)" d="M535.841 436.758C537.157 436.865 537.961 437.129 538.883 438.089C549.874 449.521 543.85 487.07 542.511 501.375C540.588 497.543 539.43 493.986 538.275 489.876C537.517 487.176 536.893 484.061 534.431 482.671C533.284 484.573 533.69 486.95 534.017 489.064C536.322 503.967 546.538 508.319 547.453 516.088C543.949 518.78 537.242 515.215 532.662 517.225C531.895 519.073 538.871 521.746 540.06 524.634C539.894 526.067 540.089 527.333 538.859 528.303C533.659 532.407 516.205 530.47 509.794 529.464C508.772 528.346 507.918 527.228 507.071 525.973L505.605 525.82L504.519 527.4C504.322 532.482 506.215 538.512 509.679 542.319C514.726 547.866 521.722 548.398 528.698 548.596C526.724 551.947 524.681 555.735 521.156 557.679C506.348 565.847 480.614 552.871 468.786 543.175C464.784 539.894 459.097 531.423 454.727 530.167L454.284 531.283C455.805 534.984 457.862 537.744 460.368 540.843C464.541 545 468.833 548.548 473.615 551.977C468.092 555.948 464.323 560.213 460.62 565.909C448.862 555.168 439.11 543.369 429.484 530.749C442.297 522.669 442.717 512.91 449.243 507.845C451.594 506.019 454.4 507.189 456.551 504.341C455.159 502.154 449.142 501.274 446.548 499.908C444.654 498.91 442.743 498.124 440.758 497.328C437.588 493.214 434.963 488.576 432.201 484.178C435.133 481.734 438.187 478.701 441.691 477.16C443.262 478.734 443.228 479.384 443.716 481.404C444.319 483.905 444.68 485.023 446.901 486.335C449.129 487.651 452.351 489.036 454.915 488.396C455.057 485.449 449.286 476.497 447.924 473.132C451.42 476.544 454.32 480.525 458.076 483.669C460.284 485.517 462.047 486.347 464.911 486.116C468.93 482.954 471.736 478.025 474.817 473.974C484.283 461.53 500.27 446.167 515.143 440.85C521.793 438.474 528.881 437.729 535.841 436.758Z"/>
	<path transform="scale(0.285156 0.285156)" d="M524.875 467.687C529.271 467.35 532.212 467.314 536.006 469.958L535.549 471.229C530.546 473.244 524.935 473.019 519.639 474.242C516.752 475.327 514.176 476.168 511.103 476.548L510.125 475.706C513.881 471.172 519.529 469.578 524.875 467.687Z"/>
	<path transform="scale(0.285156 0.285156)" d="M508.173 493.202C514.885 494.522 520.639 493.407 527.124 494.173L528.528 496.611C527.583 497.283 526.606 497.952 525.547 498.433C522.127 499.985 517.687 500.405 514.139 499.101C510.87 497.899 509.597 496.193 508.173 493.202Z"/>
	<path fill="#ECA69D" transform="scale(0.285156 0.285156)" d="M466.135 387.858C470.823 387.379 475.677 387.276 480.354 387.907C502.807 390.936 526.107 409.387 539.589 426.909C515.101 429.609 467.831 453.486 446.715 467.257C433.751 475.586 420.362 486.617 409.504 497.553C406.121 489.606 403.664 481.451 402.549 472.87C399.929 452.713 403.667 431.717 416.354 415.413C428.84 399.37 446.149 390.302 466.135 387.858Z"/>
	<path fill="#F7DCBF" transform="scale(0.285156 0.285156)" d="M592.249 345.777C614.442 325.574 636.953 313.282 665.523 304.122C681.504 318.398 696.418 330.286 715.152 340.673C710.427 346.398 704.751 351.122 699.046 355.822C694.887 353.947 690.433 351.108 686.159 349.731C683.881 348.996 683.319 349.525 681.268 350.526C679.452 351.512 677.862 352.167 675.844 352.624C675.7 352.622 675.554 352.61 675.41 352.616C666.288 353.002 667.614 363.724 662.613 368.497C654.561 376.183 635.262 383.208 624.237 384.791C620.712 385.297 616.85 384.985 613.295 384.852C599.108 374.756 595.462 362.071 592.249 345.777Z"/>
	<path transform="scale(0.285156 0.285156)" d="M622.276 345.112C627.153 346.541 623.008 354.034 624.44 359.986C625.714 365.282 633.131 371.392 636.158 376.398L634.617 377.541L632.615 377.135C629.784 375.058 628.285 372.357 626.496 369.408L625.433 367.625L624.705 367.954C625.251 371.719 629.253 373.911 629.581 377.454C627.44 377.654 626.217 377.943 624.435 376.421C619.715 372.391 619.162 361.806 619 356.015C618.866 351.207 618.826 348.76 622.276 345.112Z"/>
	<path transform="scale(0.285156 0.285156)" d="M650.877 318.514C655.087 320.516 659.734 334.307 664.557 338.986C665.644 340.04 665.373 340.947 665.483 342.41C665.298 342.396 665.111 342.39 664.927 342.367C660.981 341.876 658.044 340.26 655.682 337.054C652.325 332.499 650.048 324.141 650.877 318.514Z"/>
	<path transform="scale(0.285156 0.285156)" d="M641.176 356.778C644.94 357.609 648.314 362.755 650.782 365.582C650.495 365.669 650.209 365.762 649.921 365.844C647.093 366.648 645.543 366.109 643.144 364.734C641.388 362.087 641.344 359.858 641.176 356.778Z"/>
	<path fill="#7D6253" transform="scale(0.285156 0.285156)" d="M529.222 646.941C532.94 639.619 534.71 631.887 536.824 624.007C540.836 609.05 546.947 593.943 557.242 582.095C559.156 581.883 559.288 581.891 560.967 582.827C563.198 589.862 552.438 598.026 551.886 605.137L553.382 605.708C557.547 604.078 586.924 562.902 604.62 553.261C598.218 568.395 583.197 579.959 571.792 591.201C571.221 593.166 570.917 593.322 571.858 595.233C577.868 594.818 589.325 579.624 593.791 574.693C595.661 574.68 597.162 574.414 598.845 575.319C592.751 584.286 577.5 595.35 574.482 604.057L575.498 604.592C586.395 598.959 607.19 573.921 613.192 562.931L613.534 562.296L614.482 562.483C615.607 575.408 588.043 600.566 580.006 611.162L580.569 612.76L581.986 613.094C592.233 609.107 607.922 584.387 613.907 574.626L615.079 575.225C619.52 587.314 585.72 615.311 585.048 620.547L586.152 621.585C592.854 619.965 606.454 601.989 610.614 596.6C605.309 625.008 564.042 656.131 545.045 677.413C541.748 665.398 537.04 656.622 529.222 646.941Z"/>
	<path fill="#FEFEFD" transform="scale(0.285156 0.285156)" d="M620.529 390.64C617.037 393.143 613.553 395.666 610.25 398.415C606.896 401.208 602.133 404.428 601.702 409.084C603.785 409.959 605.064 409.022 606.906 407.86C621.023 398.95 625.647 390.991 643.017 383.814C646.069 382.553 649.274 380.964 652.57 380.57C652.009 381.566 619.42 401.512 615.36 404.28C613.738 405.386 611.461 406.634 611.079 408.579C611.332 408.732 611.563 408.932 611.839 409.039C614.489 410.07 616.635 408.506 618.908 407.375L622.692 413.003L620.979 414.671L621.212 417.07C627.114 420.189 661.71 388.121 670.832 386.175L671.156 387.647C667.069 396.136 646.353 409.884 638.074 415.755C634.773 418.097 630.249 420.258 627.678 423.33L628.647 424.644C628.793 424.659 628.938 424.68 629.084 424.689C637.065 425.205 662.17 402.739 669.169 396.681C662.618 408.661 652.941 416.825 642.257 425.021C639.225 427.346 634.913 429.724 632.81 432.903C632.085 433.998 632.135 434.035 632.41 435.274C640.207 435.871 653.753 420.818 659.876 415.877C646.641 440.477 625.726 449.653 601.258 459.515C589.398 464.296 577.679 468.853 565.536 472.86C565.564 461.156 564.753 449.478 564.066 437.8C566.648 437.007 569.811 436.214 571.974 434.549C581.438 427.263 584.265 407.344 596.168 397.255C600.397 393.671 605.606 391.487 610.606 389.204C613.872 389.894 617.218 390.226 620.529 390.64Z"/>
	<path fill="#FDE192" transform="scale(0.285156 0.285156)" d="M468.242 761.136C471.871 759.108 488.554 748.723 491.213 749.247L492 754.588L492.78 764.646C493.091 767.736 493.428 770.823 493.791 773.908L494.982 788.002L495.563 794.056C496.024 798.203 496.518 802.347 497.044 806.487L497.749 812.822L499.729 827.795C499.839 829.98 500.333 831.438 498.794 833.223C497.085 835.205 492.357 836.436 489.885 837.372L483.975 832.555C478.036 827.539 472.135 822.478 466.274 817.372C463.475 815.43 460.822 812.635 458.238 810.375C450.616 804.187 443.085 797.886 435.649 791.475L434.474 790.626C433.17 787.426 431.681 784.997 429.557 782.274C428.908 781.901 428.588 781.258 428.157 780.658C431.998 777.351 438.617 775.525 443.335 773.578L451.542 769.487C457.004 766.499 462.574 763.714 468.242 761.136Z"/>
	<path fill="#FDE192" transform="scale(0.285156 0.285156)" d="M435.649 791.475C441.165 789.649 450.27 794.054 456.108 795.119C465.088 796.757 473.729 796.798 482.781 795.729C486.532 795.286 492.05 793.516 495.563 794.056C496.024 798.203 496.518 802.347 497.044 806.487L497.749 812.822L499.729 827.795C499.839 829.98 500.333 831.438 498.794 833.223C497.085 835.205 492.357 836.436 489.885 837.372L483.975 832.555C478.036 827.539 472.135 822.478 466.274 817.372C463.475 815.43 460.822 812.635 458.238 810.375C450.616 804.187 443.085 797.886 435.649 791.475Z"/>
	<path fill="#FDE192" transform="scale(0.285156 0.285156)" d="M466.274 817.372C477.341 817.024 487.009 815.583 497.749 812.822L499.729 827.795C499.839 829.98 500.333 831.438 498.794 833.223C497.085 835.205 492.357 836.436 489.885 837.372L483.975 832.555C478.036 827.539 472.135 822.478 466.274 817.372Z"/>
	<path fill="#F0AC4E" transform="scale(0.285156 0.285156)" d="M499.729 827.795C499.839 829.98 500.333 831.438 498.794 833.223C497.085 835.205 492.357 836.436 489.885 837.372L483.975 832.555L499.729 827.795Z"/>
	<path fill="#F0AC4E" transform="scale(0.285156 0.285156)" d="M497.044 806.487L497.749 812.822C487.009 815.583 477.341 817.024 466.274 817.372C463.475 815.43 460.822 812.635 458.238 810.375C472.095 811.802 483.839 811.748 497.044 806.487Z"/>
	<path fill="#FDE192" transform="scale(0.285156 0.285156)" d="M468.242 761.136C471.871 759.108 488.554 748.723 491.213 749.247L492 754.588L492.78 764.646C492.12 767.054 492.236 767.389 489.973 768.671C482.282 773.027 462.678 773.493 454.155 770.709C453.223 770.404 452.362 770.028 451.542 769.487C457.004 766.499 462.574 763.714 468.242 761.136Z"/>
	<path fill="#FBC985" transform="scale(0.285156 0.285156)" d="M468.242 761.136C471.871 759.108 488.554 748.723 491.213 749.247L492 754.588C486.364 753.324 474.919 760.574 468.242 761.136Z"/>
	<path fill="#F0AC4E" transform="scale(0.285156 0.285156)" d="M429.557 782.274C446.186 790.758 473.931 794.754 491.887 789.219C492.947 788.89 493.981 788.483 494.982 788.002L495.563 794.056C492.05 793.516 486.532 795.286 482.781 795.729C473.729 796.798 465.088 796.757 456.108 795.119C450.27 794.054 441.165 789.649 435.649 791.475L434.474 790.626C433.17 787.426 431.681 784.997 429.557 782.274Z"/>
	<path fill="#F0AC4E" transform="scale(0.285156 0.285156)" d="M492.78 764.646C493.091 767.736 493.428 770.823 493.791 773.908C475.681 778.808 461.432 777.712 443.335 773.578L451.542 769.487C452.362 770.028 453.223 770.404 454.155 770.709C462.678 773.493 482.282 773.027 489.973 768.671C492.236 767.389 492.12 767.054 492.78 764.646Z"/>
	<path fill="#68524B" transform="scale(0.285156 0.285156)" d="M203.759 842.284C210.722 844.615 218.092 852.14 223.751 856.888C216.547 870.324 214.761 885.461 213.446 900.395C204.254 900.385 178.762 904.088 171.335 908.918C170.114 909.712 169.609 911.097 169.235 912.432L170.415 913.695C174.01 913.862 177.685 912.295 181.096 911.289C188.019 909.249 206.47 903.197 212.954 906.73L212.763 908.018C210.175 911.783 198.157 913.943 193.513 915.287C185.377 918.173 178.203 921.456 170.858 926.009C168.214 927.648 162.121 932.662 159.385 933.23C159.017 933.306 157.143 932.587 156.704 932.468C149.793 930.592 145.579 932.433 139.344 935.439C149.733 916.01 161.985 898.679 174.427 880.584C183.591 867.257 191.466 853.046 203.759 842.284Z"/>
	<path fill="#CFBDAB" transform="scale(0.285156 0.285156)" d="M431.144 794.611C435.534 795.61 489.065 844.123 496.038 850.72C508.42 862.435 520.295 875.2 520.593 893.385C520.811 906.725 513.7 915.677 504.943 924.763L503.698 924.844C505.373 918.304 507.906 910.778 507.293 904C504.238 870.232 444.791 822.318 419.586 800.814C423.511 798.896 427.316 796.716 431.144 794.611Z"/>
	<path fill="#FEFEFD" transform="scale(0.285156 0.285156)" d="M191.333 835.25C194.221 835.489 197.967 836.682 200.184 838.542C196.865 842.901 192.835 846.786 189.288 850.974C182.252 859.282 176.612 868.91 170.46 877.88C157.424 896.885 137.314 921.437 131.166 943.695C130.177 947.276 130.579 950.988 130.886 954.643C128.083 953.489 124.78 952.185 122.922 949.656C121.353 947.521 121.157 944.7 121.512 942.161C124.553 920.382 173.484 848.839 191.333 835.25Z"/>
	<path fill="#FDE192" transform="scale(0.285156 0.285156)" d="M518.289 343.798C520.461 346.152 522.225 351.659 523.748 354.644C531.413 369.664 538.549 380.749 551.743 391.44C548.195 401.577 545.982 412.16 543.736 422.645C543.07 422.605 542.375 422.721 541.738 422.523C540.356 422.092 533.928 414.298 532.268 412.7C525.65 406.329 518.588 400.998 511.036 395.787C516.094 378.082 518.214 362.138 518.289 343.798Z"/>
	<path fill="#FEFEFD" transform="scale(0.285156 0.285156)" d="M700.154 298.188C710.01 296.929 721.439 299.384 730.184 303.787C728.888 315.668 725.028 325.893 719.261 336.291C715.281 334.554 711.403 332.515 707.505 330.601C693.875 323.312 682.288 312.704 670.745 302.576C680.497 299.985 690.098 298.818 700.154 298.188Z"/>
	<path fill="#FEFEFD" transform="scale(0.285156 0.285156)" d="M416.562 524.064C423.305 528.353 434.096 545.592 440.033 552.566C446.748 560.454 453.771 567.209 461.829 573.714C461.394 577.37 460.981 581.092 459.929 584.632C459.067 587.532 457.957 589.087 455.338 590.525C434.508 574.884 421.195 556.541 407.696 534.624L416.562 524.064Z"/>
	<path fill="#FEFEFD" transform="scale(0.285156 0.285156)" d="M465.077 585.481C471.029 600.577 460.904 661.964 457.203 680.711C452.176 683.798 446.943 686.206 441.584 688.644L440.8 687.151C444.052 677.923 445.763 668.143 447.923 658.611C451.177 644.446 454.346 630.261 457.429 616.057C459.438 606.416 460.29 594.056 465.077 585.481Z"/>
	<path fill="#5484A9" transform="scale(0.285156 0.285156)" d="M603.363 463.969C604.759 465.099 610.116 479.75 615.502 485.693C599.863 492.688 585.387 492.848 568.963 489.362C565.207 488.641 558.927 488.274 555.888 486.044C559.044 484.9 562.422 483.969 564.751 481.416C570.147 475.503 594.651 467.896 603.363 463.969Z"/>
	<path fill="#68524B" transform="scale(0.285156 0.285156)" d="M499.99 844.268C506.525 845.44 550.673 863.054 557.441 866.559L557.643 867.825C555.434 870.566 551.672 871.854 548.536 873.292C540.516 876.872 532.634 879.367 524.081 881.326C518.41 867.786 511.301 860.317 501.877 849.65C499.952 847.471 499.783 847.167 499.99 844.268Z"/>
	<defs>
		<linearGradient id="gradient_0" gradientUnits="userSpaceOnUse" x1="638.23022" y1="435.55103" x2="648.26672" y2="447.67731">
			<stop offset="0" stop-color="#FBDBB4"/>
			<stop offset="1" stop-color="#FFF3E3"/>
		</linearGradient>
	</defs>
	<path fill="url(#gradient_0)" transform="scale(0.285156 0.285156)" d="M675.749 389.924C676.373 391.926 676.492 393.722 676.305 395.792C675.275 407.246 664.302 430.019 657.862 439.504C654.332 444.655 650.086 449.279 645.254 453.234C640.211 457.405 618.059 471.967 612.993 471.493C611.601 468.219 610.587 464.693 609.445 461.319C618.362 457.854 627.566 454.202 636.03 449.744C653.084 440.762 670.215 407.971 675.749 389.924Z"/>
	<path fill="#ECA69D" transform="scale(0.285156 0.285156)" d="M364.454 417.244C377.626 415.74 389.822 417.947 402.704 420.541C392.09 423.14 382.109 424.591 372.007 429.012C364.776 432.891 358.035 437.352 351.234 441.933C348.936 434.856 346.826 427.707 344.631 420.596C351.23 419.027 357.713 417.968 364.454 417.244Z"/>
	<path fill="#FDE192" transform="scale(0.285156 0.285156)" d="M469.875 637.144C474.294 638.024 479.278 637.144 483.729 636.618L484.212 639.986L484.569 648.376L484.667 650.742L485.448 659.325L485.509 664.853C482.662 668.608 471.861 674.715 467.049 675.564C466.225 675.71 465.595 675.617 464.779 675.484C464.329 673.575 464.649 672.353 465.151 670.481L465.912 665.357L466.999 658.903L467.499 653.973L468.91 642.514C469.171 640.716 469.539 638.93 469.875 637.144Z"/>
	<path fill="#FBC985" transform="scale(0.285156 0.285156)" d="M469.875 637.144C474.294 638.024 479.278 637.144 483.729 636.618L484.212 639.986L484.569 648.376C478.908 650.298 473.258 652.365 467.499 653.973L468.91 642.514C469.171 640.716 469.539 638.93 469.875 637.144Z"/>
	<path fill="#FDE192" transform="scale(0.285156 0.285156)" d="M465.912 665.357C472.48 663.943 478.999 661.276 485.448 659.325L485.509 664.853C482.662 668.608 471.861 674.715 467.049 675.564C466.225 675.71 465.595 675.617 464.779 675.484C464.329 673.575 464.649 672.353 465.151 670.481L465.912 665.357Z"/>
	<path fill="#FBC985" transform="scale(0.285156 0.285156)" d="M485.509 664.853C482.662 668.608 471.861 674.715 467.049 675.564C466.225 675.71 465.595 675.617 464.779 675.484C464.329 673.575 464.649 672.353 465.151 670.481C472.507 670.036 478.506 665.246 485.509 664.853Z"/>
	<path fill="#FBC985" transform="scale(0.285156 0.285156)" d="M484.667 650.742L485.448 659.325C478.999 661.276 472.48 663.943 465.912 665.357L466.999 658.903C467.156 658.977 467.304 659.074 467.469 659.126C471.047 660.246 479.885 657.329 482.909 655.336C484.498 654.289 484.345 652.533 484.667 650.742Z"/>
	<path fill="#ECA69D" transform="scale(0.285156 0.285156)" d="M375.847 448.07C375.927 448.177 376.022 448.274 376.087 448.391C376.792 449.647 376.447 452.151 376.771 453.648C377.265 455.938 378.481 458.147 378.727 460.483C379.521 468.024 372.95 481.592 370.618 489.048L362.168 483.153L351.449 476.065C357.864 466.036 365.407 454.178 375.847 448.07Z"/>
	<path fill="#7D6253" transform="scale(0.285156 0.285156)" d="M611.208 612.955L612.389 614.654C611.645 619.988 608.983 624.592 606.129 629.075C597.284 642.97 584.68 662.104 570.732 670.835C565.122 674.347 559.493 676.009 553.126 677.422L552.47 676.941C553.782 673.58 570.489 660.52 574.463 656.741C588.076 643.793 599.476 627.592 611.208 612.955Z"/>
	<path fill="#5484A9" transform="scale(0.285156 0.285156)" d="M558.038 438.398C558.87 438.688 559.108 439.313 559.631 440C560.807 450.715 562.939 469.186 559.787 479.384C557.013 480.855 552.91 480.772 549.785 481.053C550.187 467.334 550.707 455.177 545.979 442.016C549.958 440.479 553.887 439.37 558.038 438.398Z"/>
	<path fill="#FBC985" transform="scale(0.285156 0.285156)" d="M467.592 574.482C467.504 572.639 466.977 570.811 466.581 569.01C468.264 562.182 473.902 558.792 479.078 554.607C479.133 559.404 479.629 564.201 480.017 568.981L480.263 574.9C480.499 578.994 480.219 584.068 481.438 587.959C477.977 588.313 474.831 588.706 471.529 589.846C471.091 586.547 470.738 583.522 469.339 580.464C468.192 578.419 467.831 576.805 467.592 574.482Z"/>
	<path fill="#FBC985" transform="scale(0.285156 0.285156)" d="M480.263 574.9C480.499 578.994 480.219 584.068 481.438 587.959C477.977 588.313 474.831 588.706 471.529 589.846C471.091 586.547 470.738 583.522 469.339 580.464C472.716 578.305 476.663 576.68 480.263 574.9Z"/>
	<path fill="#FDE192" transform="scale(0.285156 0.285156)" d="M467.592 574.482C468.077 573.545 468.544 572.691 469.268 571.912C472.077 568.891 476.218 569.023 480.017 568.981L480.263 574.9C476.663 576.68 472.716 578.305 469.339 580.464C468.192 578.419 467.831 576.805 467.592 574.482Z"/>
	<path fill="#FEFEFD" transform="scale(0.285156 0.285156)" d="M681.268 350.526C685.27 354.325 689.629 357.15 694.6 359.534C688.64 364.09 682.679 369.124 675.784 372.168C671.23 374.178 666.572 374.581 661.677 375.119C668.139 370.369 667.979 364.849 672.169 361.578L676.177 363.491L677.515 362.506C677.827 358.836 674.985 356.51 675.844 352.624C677.862 352.167 679.452 351.512 681.268 350.526Z"/>
	<path fill="#68524B" transform="scale(0.285156 0.285156)" d="M145.867 937.803C148.856 937.523 152.735 936.907 155.258 938.954C156.762 940.175 156.619 940.771 156.797 942.579C154.711 948.025 151.234 949.465 146.309 952.077C144.001 953.084 141.995 954.014 139.431 954.139C137.223 953.083 137.05 952.913 135.868 950.769C135.833 949.348 135.921 948.021 136.39 946.669C138.168 941.535 141.251 940.127 145.867 937.803Z"/>
	<path fill="#FEFEFD" transform="scale(0.285156 0.285156)" d="M560.895 872.078L562.021 873.429C562.016 874.395 562.228 875.758 561.782 876.609C557.281 885.198 535.979 890.299 527.216 892.83C525.708 891.544 525.468 890.263 524.967 888.393C525.189 887.799 525.22 887.092 525.634 886.61C526.17 885.986 534.234 884.092 535.577 883.631C544.501 880.565 552.842 877.015 560.895 872.078Z"/>
	<path fill="#FEFEFD" transform="scale(0.285156 0.285156)" d="M618.908 407.375C630.121 399.826 641.98 392.485 653.759 385.871L655.944 390.254C644.946 397.765 634.104 406.198 622.692 413.003L618.908 407.375Z"/>
	<path fill="#FBC985" transform="scale(0.285156 0.285156)" d="M470.992 622.515C475.14 619.464 477.923 619.771 482.849 620.079L483.01 624.106L483.455 629.892L483.729 636.618C479.278 637.144 474.294 638.024 469.875 637.144L469.615 634.762L470.712 626.655L470.992 622.515Z"/>
	<path fill="#FDE192" transform="scale(0.285156 0.285156)" d="M469.615 634.762C473.942 632.444 478.542 630.402 483.455 629.892L483.729 636.618C479.278 637.144 474.294 638.024 469.875 637.144L469.615 634.762Z"/>
	<path fill="#FDE192" transform="scale(0.285156 0.285156)" d="M470.992 622.515C475.14 619.464 477.923 619.771 482.849 620.079L483.01 624.106C478.873 625.977 475.162 626.334 470.712 626.655L470.992 622.515Z"/>
	<path fill="#FBC985" transform="scale(0.285156 0.285156)" d="M472.704 603.942C475.465 601.787 478.467 600.437 481.634 598.985L481.819 606L482.849 620.079C477.923 619.771 475.14 619.464 470.992 622.515C471.731 616.36 471.884 610.043 472.253 603.851L472.704 603.942Z"/>
	<path fill="#FDE192" transform="scale(0.285156 0.285156)" d="M472.704 603.942C475.465 601.787 478.467 600.437 481.634 598.985L481.819 606C479.695 606.784 477.45 607.777 475.171 607.876C473.824 607.935 473.773 607.625 472.76 606.73L472.704 603.942Z"/>
	<path fill="#FDE192" transform="scale(0.285156 0.285156)" d="M734.849 307.788C735.555 308.154 736.334 308.545 736.932 309.074C738.773 310.703 739.345 312.117 739.445 314.549C739.879 325.105 727.441 337.742 720.411 344.745L718.864 345.664C718.421 344.181 722.011 339.97 723.091 338.429C729.564 329.196 732.638 318.715 734.849 307.788Z"/>
	<path fill="#FEFEFD" transform="scale(0.285156 0.285156)" d="M510.841 534.42C519.009 533.884 527.389 534.246 535.582 534.242L531.38 542.164C531.252 542.266 531.137 542.385 530.998 542.471C528.607 543.949 523.372 544.007 520.686 543.196C515.75 541.705 513.259 538.789 510.841 534.42Z"/>
	<path fill="#F0AC4E" transform="scale(0.285156 0.285156)" d="M471.529 589.846C474.831 588.706 477.977 588.313 481.438 587.959L481.127 590.293L481.634 598.985C478.467 600.437 475.465 601.787 472.704 603.942L472.253 603.851L472.135 596.398L471.529 589.846Z"/>
	<path fill="#FDE192" transform="scale(0.285156 0.285156)" d="M471.529 589.846C474.831 588.706 477.977 588.313 481.438 587.959L481.127 590.293C478.695 592.693 475.739 595.999 472.135 596.398L471.529 589.846Z"/>
	<path fill="#FEFEFD" transform="scale(0.285156 0.285156)" d="M581.609 406.047L582.034 407.436C580.334 413.174 573.659 427.557 568.47 430.605C566.386 431.829 564.558 431.846 562.265 431.353C564.404 430.343 566.657 429.339 568.551 427.907C573.413 424.232 570.48 421.382 571.46 416.471C572.399 411.768 577.98 408.688 581.609 406.047Z"/>
	<path fill="#FDE192" transform="scale(0.285156 0.285156)" d="M258.569 653.418C261.696 654.576 264.298 656.02 267.104 657.814C263.471 663.813 260.269 670.156 256.908 676.315C257.302 668.66 257.702 661.037 258.569 653.418Z"/>
	<path fill="#5484A9" transform="scale(0.285156 0.285156)" d="M630.763 468.521L631.325 469.062C631.076 469.917 630.88 470.545 630.417 471.313C627.933 475.427 622.927 480.327 618.213 481.582C616.978 479.84 616.273 479.387 616.36 477.207C620.306 473.386 625.985 471.263 630.763 468.521Z"/>
	<path fill="#FEFEFD" transform="scale(0.285156 0.285156)" d="M653.759 385.871C657.693 383.301 661.67 380.208 666.33 379.209L667.734 379.693C667.213 382.559 664.866 384.248 662.608 385.815C660.408 387.326 658.186 388.806 655.944 390.254L653.759 385.871Z"/>
	<path fill="#7D6253" transform="scale(0.285156 0.285156)" d="M593.791 574.693C599.163 568.737 604.183 562.468 611.003 558.111C607.474 564.354 603.86 570.118 598.845 575.319C597.162 574.414 595.661 574.68 593.791 574.693Z"/>
	<path fill="#FDE192" transform="scale(0.285156 0.285156)" d="M556.175 394.144C558.189 395.173 560.16 395.852 561.181 397.992C560.613 400.823 557.575 402.869 555.514 404.757C554.906 405.403 554.078 405.924 553.369 406.462C552.698 402.995 555.147 397.561 556.175 394.144Z"/>
	<path fill="#FEFEFD" transform="scale(0.285156 0.285156)" d="M803.845 753.458C817.388 762.357 830.817 769.046 846.894 772.154C836.817 794.528 828.225 817.839 818.666 840.476L741.633 1024L692.048 1024C727.091 932.989 768.078 844.207 803.845 753.458Z"/>
	<path fill="#FEFEFD" transform="scale(0.285156 0.285156)" d="M820.788 699.958C825.544 686.228 831.473 672.701 836.863 659.196C845.381 637.853 853.612 616.587 863.906 596.012C865.191 598.067 866.432 600.514 868.918 601.216C871.097 601.832 873.745 602.077 876.007 602.036C883.833 611.128 892.087 619.47 902.259 625.954C897.776 639.107 891.577 651.53 886.307 664.368C881.107 677.036 872.121 704.632 864.351 714.862C858.49 710.559 851.268 703.858 843.639 703.494C838.851 703.265 835.985 705.779 832.761 708.863L820.788 699.958Z"/>
	<path fill="#C1D6B2" transform="scale(0.285156 0.285156)" d="M926.389 438.485C929.738 437.464 933.552 435.722 936.861 437.614C938.904 438.782 940.732 440.707 942.429 442.334C960.617 433.156 962.595 442.223 973.149 438.372C973.32 438.309 973.501 438.274 973.676 438.225C988.131 451.273 1002.19 444.601 1013.62 468.221C1017.31 468.864 1021.06 469.723 1023.38 472.935C1025.65 476.071 1033.11 496.24 1032.26 499.35C1031.07 503.673 1025.6 505.627 1027.79 510.342C1029.25 513.514 1031.76 515.645 1030.36 519.543C1028.53 524.674 1024.88 523.123 1025.36 529.897L1026.95 528.477C1039.73 531.557 1052.96 538.55 1065.18 543.563L1134.93 571.628L1312.17 642.673C1321.96 646.555 1380.18 667.789 1385.15 672.025C1387.77 676.663 1386.41 704.876 1385.03 710.481C1384.82 711.297 1384.49 711.982 1384.08 712.712C1386.59 717.301 1384.36 770.924 1383.01 778.402C1392.29 783.584 1401.88 788.18 1411.73 792.161C1417.12 794.348 1431.12 797.948 1435.19 801.043C1438.4 809.949 1435.84 875.676 1431.59 884.818C1423.7 901.764 1350.58 917.377 1356.16 935.16C1357.57 939.651 1362.78 942.794 1366.82 944.606C1387.55 953.902 1430.26 948.431 1450.88 940.551C1451.72 940.233 1452.52 939.796 1453.29 939.352C1453.22 939.484 1453.14 939.619 1453.06 939.748C1447.74 948.158 1427.26 954.259 1429.44 966.444C1429.99 969.518 1431.93 971.871 1434.53 973.5C1449.96 983.181 1484.13 978.242 1500.95 974.083C1511.13 971.563 1558.6 954.06 1563.59 946.033C1566.48 941.382 1563.79 931.027 1562.41 925.97C1559.36 914.792 1556.22 904.437 1555.7 892.763C1555.11 879.747 1560 829.776 1557.61 823.144C1559.15 818.621 1559.38 813.812 1557.78 809.286C1572.25 807.739 1592.84 802.613 1605.52 795.357C1617.87 797.706 1817.38 876.957 1818.82 878.19C1821.05 883.371 1821.3 919.952 1819.4 925.399C1819.17 926.054 1818.86 926.639 1818.5 927.23C1819.28 928.466 1819.73 929.582 1819.85 931.041C1821.43 949.872 1820.07 970.027 1820.06 988.986C1820.05 998.337 1821.46 1012.06 1819.76 1020.87C1819.54 1021.99 1819.05 1023.04 1818.44 1024L741.633 1024L818.666 840.476C828.225 817.839 836.817 794.528 846.894 772.154C830.817 769.046 817.388 762.357 803.845 753.458C777.325 733.344 779.234 714.356 769.842 684.856C779.183 676.536 786.284 679.675 797.791 679.051C805.902 684.464 813.34 693.415 820.788 699.958L832.761 708.863C835.985 705.779 838.851 703.265 843.639 703.494C851.268 703.858 858.49 710.559 864.351 714.862C872.121 704.632 881.107 677.036 886.307 664.368C891.577 651.53 897.776 639.107 902.259 625.954C892.087 619.47 883.833 611.128 876.007 602.036C873.745 602.077 871.097 601.832 868.918 601.216C866.432 600.514 865.191 598.067 863.906 596.012C865.976 589.384 869.49 583.278 871.579 576.611C858.091 559.497 850.431 542.87 851.206 520.625C848.821 524.113 846.732 527.883 843.02 530.089C837.132 530.608 837.201 526.258 833.195 523.461C832.137 522.722 830.929 522.118 830.002 521.199C822.013 513.284 834.737 509.645 834.157 504.919C833.867 502.563 830.855 501.252 830.968 497.852C833.94 492.038 838.536 495.04 843.15 491.72C845.061 488.676 845.174 487.825 844.964 484.236C846.631 482.413 849.784 482.106 851.392 480.414C854.39 477.261 853.922 472.658 858.841 470.748C859.994 471.574 860.588 472.055 862.046 472.194C864.637 464.503 865.434 468.854 870.004 465.989C870.92 465.414 871.725 461.444 872.092 460.266C874.548 457.99 875.881 457.976 879.123 457.392L881.599 453.295C883.28 453.438 884.633 453.35 886.291 453.055C887.001 452.124 887.748 451.141 888.636 450.372C891.915 447.532 899.833 442.874 903.888 441.453C905.686 440.823 908.518 441.214 910.431 441.266C912.343 441.317 915.684 441.918 917.457 441.523C921.409 440.643 919.928 438.171 926.389 438.485Z"/>
	<path transform="scale(0.285156 0.285156)" d="M926.389 438.485C929.738 437.464 933.552 435.722 936.861 437.614C938.904 438.782 940.732 440.707 942.429 442.334C960.617 433.156 962.595 442.223 973.149 438.372C973.32 438.309 973.501 438.274 973.676 438.225C988.131 451.273 1002.19 444.601 1013.62 468.221C1017.31 468.864 1021.06 469.723 1023.38 472.935C1025.65 476.071 1033.11 496.24 1032.26 499.35C1031.07 503.673 1025.6 505.627 1027.79 510.342C1029.25 513.514 1031.76 515.645 1030.36 519.543C1028.53 524.674 1024.88 523.123 1025.36 529.897C1025.99 532.456 1027.03 534.683 1025.59 537.184C1021.04 545.109 1013.36 554.137 1006.55 560.357C1004.83 561.932 1001.19 563.759 999.939 565.444C999.169 566.486 998.968 567.805 998.94 569.051C1000.02 573.162 1001.45 574.637 1005.11 576.744C1018.68 584.548 1034.18 587.572 1047.97 595.512C1102.06 626.668 1144.71 682.623 1161.44 742.558C1171.79 779.93 1173.51 819.171 1166.44 857.303C1165.34 862.915 1164.33 870.985 1161.43 875.919C1161.18 876.346 1160.9 876.758 1160.62 877.163C1169.01 880.722 1175.63 888.693 1183 893.995C1200.66 906.708 1232.83 921.649 1241.06 942.23C1242.51 945.844 1243.01 949.754 1241.29 953.396C1239.52 957.122 1236.36 958.577 1232.63 959.739C1213.94 965.563 1177.79 967.361 1157.48 967.169C1147.49 967.075 1137.31 965.994 1127.34 966.513C1121.87 966.797 1116.9 970.648 1111.37 970.95C1099.72 971.585 1088.17 969.735 1076.57 970.264C1026.4 972.548 916.161 984.764 874.071 962.007C863.243 956.153 854.046 947.536 850.595 935.394C849.435 931.309 849.325 927.221 849.418 923.006C844.442 915.01 840.943 907.773 843.073 898.031C848.223 874.47 896.976 844.838 916.37 830.909C904.69 822.278 893.93 813.108 883.834 802.649C875.184 793.687 866.995 782.879 856.8 775.679C853.867 773.606 850.342 772.928 846.894 772.154C830.817 769.046 817.388 762.357 803.845 753.458C777.325 733.344 779.234 714.356 769.842 684.856C779.183 676.536 786.284 679.675 797.791 679.051C805.902 684.464 813.34 693.415 820.788 699.958L832.761 708.863C835.985 705.779 838.851 703.265 843.639 703.494C851.268 703.858 858.49 710.559 864.351 714.862C872.121 704.632 881.107 677.036 886.307 664.368C891.577 651.53 897.776 639.107 902.259 625.954C892.087 619.47 883.833 611.128 876.007 602.036C873.745 602.077 871.097 601.832 868.918 601.216C866.432 600.514 865.191 598.067 863.906 596.012C865.976 589.384 869.49 583.278 871.579 576.611C858.091 559.497 850.431 542.87 851.206 520.625C848.821 524.113 846.732 527.883 843.02 530.089C837.132 530.608 837.201 526.258 833.195 523.461C832.137 522.722 830.929 522.118 830.002 521.199C822.013 513.284 834.737 509.645 834.157 504.919C833.867 502.563 830.855 501.252 830.968 497.852C833.94 492.038 838.536 495.04 843.15 491.72C845.061 488.676 845.174 487.825 844.964 484.236C846.631 482.413 849.784 482.106 851.392 480.414C854.39 477.261 853.922 472.658 858.841 470.748C859.994 471.574 860.588 472.055 862.046 472.194C864.637 464.503 865.434 468.854 870.004 465.989C870.92 465.414 871.725 461.444 872.092 460.266C874.548 457.99 875.881 457.976 879.123 457.392L881.599 453.295C883.28 453.438 884.633 453.35 886.291 453.055C887.001 452.124 887.748 451.141 888.636 450.372C891.915 447.532 899.833 442.874 903.888 441.453C905.686 440.823 908.518 441.214 910.431 441.266C912.343 441.317 915.684 441.918 917.457 441.523C921.409 440.643 919.928 438.171 926.389 438.485Z"/>
	<path fill="#C1D6B2" transform="scale(0.285156 0.285156)" d="M951.138 615.669C961.863 619.947 971.157 625.612 979.596 633.517C975.925 637.61 971.02 642.256 968.812 647.316C964.546 657.092 964.075 670.128 960.997 680.601C955.746 698.468 948.42 715.547 942.897 733.242C945.771 735.593 948.61 738.026 951.694 740.1C950.303 746.208 949.618 752.328 948.923 758.544C934.157 757.705 919.988 755.22 905.782 751.102C898.011 748.849 890.236 745.931 882.37 744.109C880.374 730.21 874.996 723.78 864.351 714.862C872.121 704.632 881.107 677.036 886.307 664.368C891.577 651.53 897.776 639.107 902.259 625.954C911.94 630.511 920.565 632.926 931.082 629.047C938.653 626.255 945.197 621.001 951.138 615.669Z"/>
	<path fill="#ECA69D" transform="scale(0.285156 0.285156)" d="M1026.72 591.397C1026.93 591.387 1027.13 591.358 1027.34 591.366C1040.99 591.878 1076.72 621.885 1087.51 632.004C1135.44 676.977 1163.11 736.863 1165.1 802.733C1165.62 820.198 1160.81 882.424 1149.5 894.42C1096.98 886.585 1048.1 856.821 1006.33 825.081C1010.7 818.225 1014.44 810.849 1018.37 803.726C1039.83 825.846 1065.63 845.816 1093.43 859.368C1096.55 860.89 1101.12 863.315 1104.63 862.108L1105.26 860.526C1097.64 853.105 1084.27 848.744 1075.16 842.97C1055.64 830.428 1037.52 815.831 1021.11 799.429C1023.3 795.486 1027.09 789.942 1026.84 785.333C1037.07 784.904 1046.86 783.909 1056.88 781.685C1057.26 781.127 1057.63 780.559 1057.93 779.951C1059.06 777.613 1059.49 774.535 1058.67 772.063C1063.28 764.501 1069.43 721.6 1071.79 709.702C1072.81 704.554 1074.4 699.55 1075.62 694.45C1076.55 690.568 1079.09 683.139 1076.93 679.63L1075.22 680.15C1068.31 689.061 1060.48 741.669 1057.95 755.219C1056.71 761.879 1055.96 771.039 1052.83 776.938C1052.72 777.143 1052.6 777.343 1052.49 777.546C1039.11 780.527 1023.02 780.762 1009.45 778.848C992.037 776.393 976.005 769.947 965.138 755.539C972.213 734.653 989.707 660.44 1002.91 649.328C1011.01 642.514 1023.29 639.064 1033.77 639.96C1048.85 641.251 1053.59 653.423 1062.57 663.027C1064.04 664.604 1065.12 665.06 1067.21 665.156C1067.66 663.655 1067.31 662.915 1066.73 661.479C1062.59 651.293 1051.85 640.885 1041.72 636.851C1029.58 632.019 1017.51 635.883 1006.19 640.85C1011.42 634.045 1031.4 614.216 1032.84 609.205L1031.55 608.656C1030.23 609.136 1028.91 609.666 1027.69 610.367C1022.02 613.615 1017.66 618.852 1013.41 623.701C993.842 646.005 984.976 670.842 977.106 698.99C975.147 683.22 974.317 667.139 972.913 651.299C978.242 642.509 985.534 638.892 993.065 632.401C1002 624.698 1023.94 602.265 1026.72 591.397Z"/>
	<path transform="scale(0.285156 0.285156)" d="M1037.58 795.777C1038.47 795.733 1040.38 795.773 1041.18 796.135C1045.72 798.194 1056.95 808.423 1061.87 811.909C1075.9 821.859 1093.06 829.879 1109.33 835.355C1117.17 837.995 1130.86 840.318 1137.32 844.718L1137.39 846.333L1134.85 848.207C1104.23 841.681 1068.49 826.881 1044.84 805.95C1041.67 803.148 1037.85 800.14 1037.58 795.777Z"/>
	<path fill="#5484A9" transform="scale(0.285156 0.285156)" d="M1004.28 828.501C1029.66 852.252 1077.17 878.729 1110 890.439C1118.77 893.567 1128 895.435 1137 897.772C1136.93 897.967 1136.87 898.172 1136.77 898.357C1126.42 917.651 1047.4 930.419 1025.88 932.64C1007.68 934.52 988.626 935.315 970.346 934.545C955.655 933.927 940.503 932.505 926.03 929.74C920.851 928.751 911.583 925.689 906.575 927.238C906.753 927.513 906.976 927.902 907.22 928.148C915.279 936.27 951.65 938.078 964.05 939.177C953.052 941.645 941.974 944.41 930.829 946.111C924.653 947.054 918.144 946.597 912.09 948.085C910.146 948.563 908.109 949.026 907.102 950.789C921.166 957.594 960.936 942.72 976.709 940.326C980.37 939.77 984.335 939.991 988.036 940.066C1011.06 939.287 1069.19 935.739 1087.71 925.836C1089.46 927.982 1090.09 929.996 1090.64 932.693C1092.31 941.03 1094.46 957.188 1089.67 964.456C1046.01 967.232 1002.64 970.174 958.852 969.839C939.212 969.689 918.634 969.788 899.402 965.499C884.966 962.279 867.812 955.777 859.68 942.679C855.471 935.944 854.119 927.808 855.924 920.074C861.525 896.967 892.005 881.839 910.696 870.579L946.811 848.877C955.238 852.396 965.627 857.521 974.929 856.174C987.49 854.355 997.098 837.944 1004.28 828.501Z"/>
	<path fill="#68524B" transform="scale(0.285156 0.285156)" d="M917.256 522.048C908.257 522.628 899.043 526.209 890.028 524.945C873.793 522.669 877.098 510.31 852.257 515.822C850.285 516.26 846.31 516.78 844.955 518.352C843.888 519.589 843.032 521.191 842.198 522.597C840.145 518.681 840.682 514.181 836.125 512.127C837.725 507.041 839.976 504.54 837.246 499.316C837.137 499.107 837.023 498.901 836.912 498.693C838.665 498.485 840.061 499.367 841.601 500.091C844.03 498.55 842.963 496.271 845.511 494.761L847.75 495.273C847.522 496.639 847.241 497.967 846.922 499.316C848.397 500.382 850.564 500.951 852.395 500.704C852.644 500.67 852.873 500.549 853.112 500.471C853.974 498.654 853.982 498.576 853.308 496.691C852.21 493.622 848.168 490.187 849.374 487.187C852.664 484.897 856.156 483.904 856.957 479.715C857.329 477.767 857.098 477.829 858.769 476.578C861.292 477.037 863.099 477.754 865.557 476.874C866.592 474.303 866.523 471.487 869.012 470.215C871.585 470.424 872.649 470.778 874.944 469.438C875.593 467.526 875.076 466.294 874.486 464.419C874.982 463.375 875.013 462.65 876.16 462.232C877.667 461.682 879.419 461.999 880.981 462.143C885.128 459.56 889.689 452.771 893.734 450.989C895.567 450.182 898.726 451.486 900.412 450.907C903.123 449.974 901.545 446.825 903.947 445.843C910.077 443.337 920.637 444.917 927.471 444.013C929.357 443.764 932.53 440.279 933 440.395C937.849 441.592 940.679 447.585 946.493 444.564C948.412 443.567 950.886 441.7 953.054 441.518C959.856 440.946 981.176 447.266 988.13 449.636C991.984 450.949 992.235 455.335 995.048 456.436C1000.53 458.583 1000.01 452.67 1004.75 462.989C1006.07 465.841 1007.53 471.802 1010.04 473.513C1013.44 473.396 1017.43 472.262 1020.04 474.968C1026.35 481.513 1018.33 487.114 1027.65 494.92C1028.3 497.094 1028.27 497.542 1027.73 499.755C1025.15 502.203 1021.86 503.476 1020.32 506.668C1021.12 510.979 1028.37 515.191 1025.04 519.519C1023.12 522.012 1018.61 523.093 1017.68 526.175C1019.01 528.685 1021.72 532.319 1021.5 535.121C1019.6 536.897 1018.4 536.213 1016.65 537.351C1012.42 540.109 1009.11 551.369 1004.16 553.608C1002.34 551.758 1001.99 551.32 1001.35 548.83C1002.5 541.979 1011.98 535.206 1007.14 528.205C1005.42 525.711 1001.96 523.708 998.875 523.455C998.041 523.387 997.332 523.648 996.556 523.902L994.898 525.886C998.163 527.7 1001.64 529.355 1003.11 532.99L1003.07 535.234C1001.63 536.408 1000.27 537.225 998.61 538.054C997.282 542.169 996.499 546.425 995.632 550.656L995.062 550.838C993.352 551.398 991.996 552.009 990.511 553.021L989.606 554.979L990.201 556.102L990.725 556.184L989.79 554.552L991.088 556.205C993.721 555.748 997.865 554.439 1000.28 555.349C1000.18 557.199 1000.11 558.106 998.64 559.374C996.144 561.527 992.326 563.254 989.445 564.936C989.46 563.709 989.577 562.549 989.726 561.334C987.658 560.642 987.164 561.139 985.244 562.142C984.32 562.625 983.426 563.178 982.534 563.718L981.334 563.141C981.25 560.334 982.149 557.991 982.478 555.258C983.312 548.318 980.231 540.665 975.275 535.852C972.459 533.118 968.698 530.976 964.674 531.066C960.782 531.152 957.123 533.532 954.596 536.38C951.958 539.356 951.264 544.297 950.316 548.043L948.545 547.863C946.472 545.523 945.07 542.912 941.658 542.83C940.996 542.814 940.309 543.048 939.684 543.223C938.175 541.618 938.002 539.82 937.61 537.745C932.371 531.742 924.482 525.436 917.256 522.048Z"/>
	<path transform="scale(0.285156 0.285156)" d="M861.371 487.826C867.592 488.348 873.875 493.094 879.41 495.851C880.877 495.438 882.706 494.754 884.224 494.683C887.276 494.54 890.469 498.768 892.592 500.823C893.5 499.749 893.975 499.237 895.32 498.691C897.087 500.207 898.796 501.596 900.788 502.823C905.845 501.585 912.279 500.942 916.995 503.582C920.976 505.81 921.99 512.539 923.234 516.666C920.484 514.163 918.317 511.602 916.137 508.593C909.457 509.863 911.616 506.206 906.902 504.481L905.951 505.1C907.045 506.87 908.04 508.604 908.895 510.501L907.82 511.017C895.54 507.341 882.142 500.409 870.093 495.53C867.847 494.621 865.21 493.289 862.789 493.025C860.894 492.819 859.242 493.731 857.471 492.828C858.137 490.386 859.573 489.527 861.371 487.826Z"/>
	<path transform="scale(0.285156 0.285156)" d="M936.877 516.55C937.28 515.58 937.907 515.041 938.652 514.322C944.778 516.446 948.37 513.008 954.484 517.175C954.475 518.558 954.533 519.187 953.676 520.349C947.222 519.76 942.089 520.777 936.877 516.55Z"/>
	<path transform="scale(0.285156 0.285156)" d="M954.484 517.175L953.601 515.033C953.917 514.356 954.039 513.52 954.767 513.247C957.987 512.04 962.793 512.85 965.9 514.195C966.688 514.537 967.417 514.988 968.123 515.473L967.662 518.174C965.776 519.151 957.989 518.502 955.761 517.749C955.268 517.582 954.972 517.413 954.484 517.175Z"/>
	<path fill="#7D6253" transform="scale(0.285156 0.285156)" d="M829.097 740.775L828.541 740.081C819.426 728.93 790.349 709.895 788.128 695.39L788.897 694.253C791.328 693.91 793.533 694.478 795.472 696.008C800.05 699.621 804.072 704.787 808.2 708.94C818.562 719.365 835.048 733.236 850.764 731.926C853.789 731.674 856.03 731.034 858.574 729.368L859.364 727.707C856.56 720.297 836.695 718.801 837.298 711.486C838.87 709.772 839.769 708.28 842.302 708.071C848.018 707.599 863.695 719.572 867.87 723.844C876.143 732.309 873.582 741.33 876.238 751.493C881.383 771.183 934.099 793.27 952.777 800.481C952.646 803.166 952.367 803.456 954.059 805.483L955.917 805.661C962.709 799.931 967.108 777.075 969.55 767.996C986.489 779.339 1001.7 783.95 1022.02 785.015C1016.2 799.793 991.954 843.876 977.253 850.365C969.984 853.573 959.648 848.191 953.035 845.233C927.931 834.008 906.911 819.253 887.969 799.315C879.333 790.225 870.834 779.826 860.584 772.579C851.261 765.986 838.307 764.731 827.649 760.886C816.92 757.016 808.911 750.957 800.194 743.753C806.977 747.328 814.279 752.867 821.611 754.85L822.415 754.188C820.731 751.501 817.87 749.932 815.332 748.133C804.608 740.527 795.947 733.362 791.35 720.536C796.263 727.006 803.972 737.338 812.286 739.219L813.693 738.472L814.025 736.454L816.589 734.696C820.68 737.157 824.621 739.113 829.097 740.775Z"/>
	<path fill="#7D6253" transform="scale(0.285156 0.285156)" d="M876.277 575.806C866.173 562.527 857.901 547.196 855.709 530.407C855.297 527.246 855.269 524.464 857.33 521.831C859.955 520.782 860.379 522.842 863.133 522.84L864.265 520.591C864.757 520.459 865.058 520.344 865.549 520.316C871.763 519.96 881.968 526.022 886.708 529.771C889.86 530.195 893.338 530.772 896.516 530.481C909.881 529.257 921.344 522.857 930.656 537.446C932.689 540.631 935.266 547.427 938.767 548.907C941.354 550 945.99 548.642 948.545 547.863L950.316 548.043C950.962 548.358 951.704 548.766 952.411 548.906C955.283 549.474 958.513 538.938 962.701 536.414C964.284 536.068 965.623 535.937 967.187 536.479C970.384 537.588 974.069 540.235 975.543 543.294C977.91 548.208 977.442 554.52 975.621 559.532C974.248 563.309 972.413 566.199 968.63 567.917C966.88 568.096 965.94 568.021 964.391 567.118C963.049 566.336 962.406 566.105 960.863 566.032L960.097 567.136C961.466 569.778 962.771 572.402 963.437 575.32C965.494 584.333 961.613 594.118 956.871 601.656C950.191 612.276 937.685 623.336 925.269 626.026C914.172 628.43 906.197 623.023 897.232 617.371C899.792 616.34 902.185 615.248 904.369 613.532C910.942 608.368 914.085 597.156 915.054 589.132C915.277 587.285 915.054 586.695 913.912 585.238C906.775 584.735 895.429 602.387 885.892 604.422C884.253 604.772 884.295 604.645 882.88 603.753C882.443 601.476 883.657 597.657 883.978 595.255C881.622 594.098 878.818 596.269 876.291 596.904C874.108 597.453 872.989 597.229 871.15 596.059C868.939 590.79 874.697 581.154 876.277 575.806Z"/>
	<path transform="scale(0.285156 0.285156)" d="M897.96 557.9L899.785 558.907L899.993 560.808C896.717 567.098 886.344 571.922 880.035 574.701C878.697 574 878.793 574.015 878.321 572.568C881.338 567.892 892.855 562.663 897.96 557.9Z"/>
	<path transform="scale(0.285156 0.285156)" d="M966.217 545.957C968.546 546.592 968.932 546.89 970.627 548.627C971.15 550.491 971.524 551.383 970.954 553.313C970.195 555.88 968.102 557.901 965.869 559.223C965.064 559.7 964.774 559.388 963.906 559.176L963.796 557.061C962.465 554.571 961.013 552.361 960.998 549.462L962.541 548.165C964.963 548.718 965.441 549.756 966.983 551.535L967.421 551.109C966.338 549.094 967.182 548.043 966.217 545.957Z"/>
	<path transform="scale(0.285156 0.285156)" d="M874.233 540.468C875.028 540.386 875.824 540.314 876.621 540.254C880.354 539.978 882.215 540.345 885.115 542.843L885.091 544.295C882.597 545.751 881.13 545.567 878.306 545.622C875.521 545.04 873.872 548.618 870.542 548.107C870.414 547.615 870.327 547.412 870.373 546.844C870.613 543.832 872.311 542.492 874.233 540.468Z"/>
	<path fill="#ECA69D" transform="scale(0.285156 0.285156)" d="M1131.93 908.882C1132.99 908.738 1134.11 908.607 1135.17 908.752C1140.53 909.482 1159.57 921.29 1165.83 924.446C1182.14 932.671 1199.54 938.389 1215.92 946.541C1219.93 948.539 1227.6 951.382 1230.1 955.104C1224.39 956.835 1218.23 957.327 1212.33 958.12C1184.37 963.325 1154.82 962.464 1126.55 961.625C1128 957.894 1128.25 954.484 1128.11 950.498C1127.8 941.465 1125.72 922.807 1118.99 916.514C1119.13 916.472 1119.27 916.434 1119.41 916.388C1123.16 915.143 1130.16 912.558 1131.93 908.882Z"/>
	<path fill="#7D6253" transform="scale(0.285156 0.285156)" d="M976.954 566.417L979.098 567.793C981.127 567.863 981.455 567.528 983.148 566.524C983.711 567.542 984.163 569.937 984.792 570.641C985.058 570.94 1017.93 589.416 1020.74 590.85C1013.35 604.283 1003.05 615.453 992.582 626.524L984.78 633.967C978.38 622.736 965.817 617.16 954.579 611.957C965.108 601.612 968.61 587.749 969.617 573.469C972.343 571.348 974.612 568.945 976.954 566.417Z"/>
	<path fill="#5484A9" transform="scale(0.285156 0.285156)" d="M920.304 833.549C926.992 838.254 934.511 842.12 941.596 846.217C931.025 851.814 920.877 858.422 910.661 864.643C891.63 876.232 872.303 886.571 857.803 903.901C855.607 907.333 854.12 911.829 851.288 914.732C851.019 914.561 850.596 914.324 850.359 914.075C848.004 911.602 847.17 905.696 847.439 902.384C849.425 877.95 902.438 848.593 920.304 833.549Z"/>
	<path fill="#7D6253" transform="scale(0.285156 0.285156)" d="M957.528 740.896C959.651 741.287 960.877 741.223 962.494 742.797C963.24 746.551 959.97 752.379 958.686 755.986L965.101 764.098C961.993 774.602 958.832 785.091 955.618 795.564C936.351 789.72 918.742 780.088 901.73 769.511C897.129 766.505 885.196 760.378 883.651 754.96C883.134 753.148 883.27 752.737 884.097 751.095C890.186 748.824 903.369 756.092 909.691 757.803C917.489 759.913 925.548 761.583 933.581 762.475C936.444 762.792 943.688 762.49 946.003 763.617C947.937 764.558 948.718 766.04 951.115 766.439C955.811 762.083 956.313 747.379 957.528 740.896Z"/>
	<path fill="#A1C4D4" transform="scale(0.285156 0.285156)" d="M1112.77 918.662L1115.3 919.248C1119.32 924.793 1120.76 933.217 1121.75 939.928C1122.71 946.394 1124.67 958.763 1120.69 964.123C1114.32 965.731 1107.39 966.077 1100.84 966.35L1097.17 966.626C1096.77 966.305 1096.18 966.131 1095.97 965.664C1094.81 963.057 1100.26 934.796 1093.26 925.154C1099.58 924.295 1106.86 921.089 1112.77 918.662Z"/>
	<path fill="#FEFEFD" transform="scale(0.285156 0.285156)" d="M1145.15 899.104C1145.84 899.016 1146 898.97 1146.63 898.968C1152.05 898.954 1168.61 910.533 1174.66 913.403C1186.62 919.068 1227.47 933.921 1235.53 942.502C1237.18 944.261 1237.74 946.14 1237.78 948.495C1236.92 950.338 1236.98 950.535 1235.06 951.476L1231.12 949.534C1228.14 946.482 1222.39 944.445 1218.55 942.552C1201.96 934.365 1184.6 928.173 1167.96 920.188C1157.23 915.043 1147.37 908.056 1136.57 903.23C1139.67 902.105 1142.34 900.832 1145.15 899.104Z"/>
	<path fill="#ECA69D" transform="scale(0.285156 0.285156)" d="M969.166 672.22C970.408 684.406 972.55 697.973 971.828 710.191C971.391 717.585 969.762 731.371 963.876 736.549C961.007 737.37 957.998 735.976 955.231 735.127C952.723 733.917 950.681 733.035 949.305 730.577C956.856 711.454 963.484 691.979 969.166 672.22Z"/>
	<path fill="#CFBDAB" transform="scale(0.285156 0.285156)" d="M1160.2 882.219C1167.76 885.192 1174.87 893.4 1181.64 898.232C1194.08 907.114 1218.02 919.196 1227.19 930.79L1225.72 931.116C1222.18 927.802 1163.08 894.861 1156.18 892.075C1158.68 889.262 1159.29 885.77 1160.2 882.219Z"/>
	<path fill="#FEFEFD" transform="scale(0.285156 0.285156)" d="M909.29 592.877C909.444 593.374 909.546 593.583 909.513 594.166C909.191 599.923 905.644 605.881 901.164 609.331C897.424 612.21 894.85 611.976 890.383 611.419L889.939 610.076C890.863 607.059 905.554 596.398 909.29 592.877Z"/>
	<path fill="#7D6253" transform="scale(0.285156 0.285156)" d="M784.62 701.6C790.561 707.014 795.351 713.85 800.693 719.864C805.541 725.321 811.017 730.002 816.589 734.696L814.025 736.454C800.359 728.645 792.589 714.675 784.62 701.6Z"/>
	<path fill="#7D6253" transform="scale(0.285156 0.285156)" d="M793.575 683.169C794.756 683.552 795.969 684.002 797.004 684.706C801.32 687.644 804.412 692.962 805.333 698.017C805.009 697.758 804.682 697.502 804.368 697.231C800.064 693.525 793.956 689.015 793.575 683.169Z"/>
	<path fill="#7D6253" transform="scale(0.285156 0.285156)" d="M812.421 699.858C814.761 701.244 816.855 702.579 818.901 704.392C819.994 707.583 819.292 708.71 818.415 711.905C817.274 710.857 816.156 709.787 815.059 708.694C812.15 705.744 812.371 703.725 812.421 699.858Z"/>
	<path fill="#FEFEFD" transform="scale(0.285156 0.285156)" d="M1025.36 529.897L1026.95 528.477C1039.73 531.557 1052.96 538.55 1065.18 543.563L1134.93 571.628L1312.17 642.673C1321.96 646.555 1380.18 667.789 1385.15 672.025C1387.77 676.663 1386.41 704.876 1385.03 710.481C1384.82 711.297 1384.49 711.982 1384.08 712.712C1384.71 714.952 1385.19 717.387 1384.18 719.548C1382.17 720.333 1380.86 720.211 1378.82 719.408L1103.62 609.72L1042.85 585.256C1028.56 579.472 1013.93 572.8 998.94 569.051C998.968 567.805 999.169 566.486 999.939 565.444C1001.19 563.759 1004.83 561.932 1006.55 560.357C1013.36 554.137 1021.04 545.109 1025.59 537.184C1027.03 534.683 1025.99 532.456 1025.36 529.897Z"/>
	<path fill="#FEFEFD" transform="scale(0.285156 0.285156)" d="M1605.52 795.357C1617.87 797.706 1817.38 876.957 1818.82 878.19C1821.05 883.371 1821.3 919.952 1819.4 925.399C1819.17 926.054 1818.86 926.639 1818.5 927.23C1794.58 919.23 1771.49 908.9 1748.14 899.426C1702.47 880.899 1656.88 861.949 1611 843.96C1593.41 837.062 1575.61 828.76 1557.61 823.144C1559.15 818.621 1559.38 813.812 1557.78 809.286C1572.25 807.739 1592.84 802.613 1605.52 795.357Z"/>
	<path transform="scale(0.285156 0.285156)" d="M1167.87 102.882C1168.07 102.723 1168.27 102.566 1168.46 102.405C1176.14 96.0433 1182.04 86.3901 1188.86 78.9896C1211.74 54.1356 1242.44 36.4417 1277.24 39.2493C1305.05 41.4926 1331.4 57.3934 1349.13 78.4669C1355.83 86.4353 1360.52 96.5841 1365.35 105.765C1371.55 104.569 1377.86 101.516 1384.01 100.879C1397.63 99.4706 1419.11 107.875 1429.98 115.41C1432.2 116.943 1433.03 118.04 1433.71 120.61C1431.79 122.968 1429.72 123.303 1426.75 123.608C1406.84 125.658 1408.7 129.738 1393.16 138.137C1409.29 141.565 1440.17 154.254 1454.72 162.289C1483.06 177.939 1567.7 240.051 1582.77 265.77C1583.31 266.694 1583.38 267.687 1583.47 268.73C1576.61 274.729 1553.74 279.16 1544.45 280.089C1542.26 271.314 1515.34 238.084 1508.13 232.981C1520.76 245.421 1556.99 314.632 1557.57 333.009C1557.58 333.443 1557.57 333.877 1557.56 334.311C1566.21 339.783 1566.11 347.488 1570.67 355.453C1576.45 365.558 1583.17 375.011 1588.69 385.322C1601.81 409.85 1610.17 437.095 1616.26 464.178C1622.7 492.836 1626.02 522.053 1628.8 551.256C1634.41 610.414 1635.79 669.643 1637.65 729.005C1637.9 737.166 1640.24 772.667 1637.67 777.009C1637.54 777.233 1637.38 777.443 1637.24 777.66C1632.35 784.167 1613.56 792.533 1605.52 795.357C1592.84 802.613 1572.25 807.739 1557.78 809.286C1559.38 813.812 1559.15 818.621 1557.61 823.144C1560 829.776 1555.11 879.747 1555.7 892.763C1556.22 904.437 1559.36 914.792 1562.41 925.97C1563.79 931.027 1566.48 941.382 1563.59 946.033C1558.6 954.06 1511.13 971.563 1500.95 974.083C1484.13 978.242 1449.96 983.181 1434.53 973.5C1431.93 971.871 1429.99 969.518 1429.44 966.444C1427.26 954.259 1447.74 948.158 1453.06 939.748C1453.14 939.619 1453.22 939.484 1453.29 939.352C1452.52 939.796 1451.72 940.233 1450.88 940.551C1430.26 948.431 1387.55 953.902 1366.82 944.606C1362.78 942.794 1357.57 939.651 1356.16 935.16C1350.58 917.377 1423.7 901.764 1431.59 884.818C1435.84 875.676 1438.4 809.949 1435.19 801.043C1431.12 797.948 1417.12 794.348 1411.73 792.161C1401.88 788.18 1392.29 783.584 1383.01 778.402C1384.36 770.924 1386.59 717.301 1384.08 712.712C1384.49 711.982 1384.82 711.297 1385.03 710.481C1386.41 704.876 1387.77 676.663 1385.15 672.025C1388.77 666.304 1388.48 622.206 1388.92 612.951C1391.02 567.914 1393.97 523.142 1400.67 478.516C1401.8 470.995 1410.58 433.169 1409.44 428.86C1409.36 428.565 1409.26 428.276 1409.17 427.984C1389.35 434.503 1337.51 443.065 1316.87 442.777C1315.01 438.893 1309.34 429.655 1305.91 427.204C1286.54 429.851 1279.86 422.145 1263.07 416.262C1254.26 413.173 1247.99 413.926 1239.97 407.819C1227.04 397.969 1211.17 382.444 1203.19 368.261C1198.77 360.387 1195.84 351.596 1192.8 343.109C1190.73 337.314 1187.9 330.805 1187.17 324.678C1186.82 321.749 1187.09 319.314 1189.03 316.953C1189.71 316.123 1191.09 315.887 1192.13 315.839C1192.81 315.808 1193.5 315.823 1194.18 315.834C1197.09 313.366 1198.87 311.469 1202.96 311.863C1210.4 312.579 1216.95 318.93 1223.52 322.165C1229.54 325.13 1236.2 326.681 1242.35 329.34C1246.71 331.227 1250.55 334.085 1254.71 336.343C1266.46 342.714 1282.04 348.743 1289.83 360.125C1290.22 360.694 1290.34 361.192 1290.51 361.849C1310.97 356.26 1331.99 352.772 1352.83 348.882C1352.78 348.743 1352.74 348.602 1352.69 348.465C1350.68 342.761 1340.93 334.323 1337.39 323.149C1331.13 303.422 1333.52 281.485 1329.19 261.347C1326.64 249.484 1319.31 240.351 1315.58 229.139C1312.63 220.277 1320.24 216.919 1313.97 209.488C1305.25 221.649 1291.08 235.553 1275.82 238.074C1263.88 240.049 1251.96 232.754 1242.68 225.949C1236.02 221.029 1229.82 215.494 1224.19 209.416C1219.59 208.333 1211.87 207.374 1209.1 203.14C1208.28 201.879 1208.21 200.669 1208.51 199.183C1209.39 194.767 1213.68 191.527 1214.14 186.872C1214.25 184.805 1213.64 183.518 1212.72 181.726C1208.79 174.122 1203.09 167.108 1198.55 159.827C1195.56 155.042 1193.28 149.733 1189.96 145.191C1188.72 144.577 1187.95 143.976 1186.48 144.341C1183.74 145.02 1182.08 148.364 1179.26 148.115C1175.47 142.123 1180.42 134.002 1177.84 128.914L1173.96 129.694C1172.45 128.289 1171.63 127.624 1171.39 125.426C1170.65 118.769 1177.57 113.03 1178.89 106.962C1175.93 104.763 1171.41 103.893 1167.87 102.882Z"/>
	<path fill="#A98E8E" transform="scale(0.285156 0.285156)" d="M1567.41 363.998C1568.02 364.035 1568.37 364.02 1568.97 364.245C1576.28 366.964 1593.42 407.319 1596.59 415.84C1605.69 439.871 1612.26 464.786 1616.18 490.181C1619.84 514.652 1622.75 539.231 1624.91 563.881C1626.88 587.676 1636.73 764.872 1632.05 775.107C1631.48 775.869 1630.86 776.599 1630.09 777.163C1620.62 784.126 1608.2 789.397 1597.22 793.517C1551.01 810.861 1505.58 809.92 1457.6 801.701C1445.64 796.836 1432.16 795.02 1419.94 790.497C1408.79 786.375 1398.62 779.611 1387.41 775.855C1388.15 774.572 1388.65 773.044 1388.78 771.562C1390.6 749.67 1390.09 727.04 1390.77 705.064C1392.27 659.502 1394.12 613.951 1396.31 568.417C1397.44 548.21 1399.28 527.746 1401.76 507.657C1402.91 498.296 1414.64 430.584 1413.78 427.024C1420.28 426.272 1426.58 423.557 1433.09 422.923C1439.11 422.338 1445.63 424.049 1451.71 424.201C1483 424.986 1527.98 407.781 1550.83 386.176C1555.88 381.407 1567.21 371.104 1567.41 363.998Z"/>
	<path transform="scale(0.285156 0.285156)" d="M1533.95 432.441C1535.31 432.076 1536.47 432.083 1537.86 432.118L1538.91 433.481C1539.88 440.194 1536.27 448.453 1533.95 454.691C1522.52 485.367 1505.54 516.872 1482.78 540.668C1479.62 543.972 1476.1 548.245 1471.89 550.166C1471.45 550.394 1470.31 550.418 1469.8 550.478C1467.3 547.131 1475.87 540.156 1478.23 537.536C1500.43 512.793 1517.58 483.948 1528.73 452.625C1530.92 446.513 1533.92 438.967 1533.95 432.441Z"/>
	<path fill="#FEFEFD" transform="scale(0.285156 0.285156)" d="M1422.19 198.666C1433.28 197.352 1442.94 199.804 1452.14 206.249C1468.18 217.469 1475.7 236.569 1478.83 255.183C1480.85 267.206 1483.51 284.888 1476.06 295.341C1476.74 293.914 1477.49 292.387 1477.84 290.841C1478.53 287.791 1478.19 281.575 1476.42 279.033L1475.14 279.28C1471.45 287.445 1473.01 323.566 1472.48 334.84C1471.7 351.476 1470.95 368.512 1467.84 384.899C1466.06 394.29 1462.75 402.908 1454.5 408.385C1438.79 418.818 1337.76 440.972 1320.81 437.252C1313.78 435.707 1311.39 418.805 1307.69 413.213C1307.58 413.056 1307.47 412.904 1307.36 412.749C1308.29 409.903 1307.42 386.203 1306.23 383.751C1314.68 382.391 1323.28 379.638 1331.62 377.657C1351.83 372.857 1375.71 369.639 1394.14 360.13C1394.26 360.201 1394.39 360.269 1394.52 360.344C1394.72 360.468 1394.92 360.602 1395.13 360.725C1400.89 364.138 1405.29 370.872 1409.82 375.794C1411.66 377.79 1413.9 380.398 1416.77 380.515L1416.99 379.131C1411.92 372.837 1406.64 365.277 1399.76 360.909C1407.7 362.908 1414.58 369.252 1422.6 369.978L1423.48 369.058C1419.29 361.552 1405.8 360.551 1399.84 354.556C1404.91 352.523 1411.46 357.265 1416.9 355.887L1417.29 354.322C1416.96 353.797 1416.62 353.294 1416.17 352.856C1411.89 348.642 1402.48 348.726 1396.83 348.528C1399.53 341.472 1399.33 332.357 1399.41 324.883C1399.6 307.165 1398.45 289.47 1397.14 271.812C1396.26 259.987 1394.62 247.715 1395.49 235.877C1395.99 229.035 1397.57 222.081 1400.71 215.947C1405.49 206.615 1412.41 201.786 1422.19 198.666Z"/>
	<path fill="#A98E8E" transform="scale(0.285156 0.285156)" d="M1382.57 165.776C1411.99 164.717 1442.23 177.382 1466.19 193.405C1475.69 199.628 1484.2 207.247 1491.43 216.006C1508.91 237.084 1546.7 302.999 1551.53 328.564C1553.33 338.104 1551.05 346.462 1545.55 354.376C1530.01 376.743 1494.16 393.403 1468.22 398.232C1477.4 387.432 1478.7 321.737 1477.44 305.403C1478.35 304.721 1479.03 303.813 1479.67 302.886C1488.6 290.012 1485.41 264.727 1482.74 250.204C1480.74 239.335 1475.97 220.802 1466.58 214.315C1466.47 213.838 1466.48 213.798 1466.29 213.355C1463.26 206.282 1451.98 199.733 1445.01 196.667C1435.67 192.568 1423.55 192.04 1414.07 195.974C1382.14 209.228 1391.43 259.334 1392.75 286.089C1393.69 304.915 1394.63 324.245 1391.73 342.921C1391.1 347.02 1391.2 351.731 1389.58 355.547C1389.51 355.701 1389.44 355.851 1389.37 356.003C1386.31 358.855 1379.07 360.243 1375.04 361.514C1373.08 355.18 1349.88 340.965 1344.44 326.711C1340.7 316.938 1339.33 305.733 1338.33 295.386C1335.33 264.383 1333.12 249.274 1316.41 222.144C1330.34 225.349 1333.87 255.052 1342.1 260.383L1343.69 259.855L1344.62 257.738C1344.13 251.88 1338.12 238.025 1333.98 233.842C1343.75 231.095 1351.48 223.921 1357.8 216.265C1366.24 206.044 1383.86 179.436 1382.57 165.776Z"/>
	<path transform="scale(0.285156 0.285156)" d="M1536.24 339.997C1538.27 339.871 1539.32 339.373 1540.94 340.685L1540.87 342.848C1534.02 356.195 1506.53 376.551 1492.28 381.191C1490.79 381.463 1490.01 380.968 1488.73 380.309L1488.98 378.911C1495.45 373.115 1504.69 369.259 1511.94 364.317C1518.88 359.592 1534.6 348.544 1536.24 339.997Z"/>
	<path fill="#FEFEFD" transform="scale(0.285156 0.285156)" d="M1264.05 43.9991L1264.49 43.9649C1289.55 42.1802 1314.3 53.0457 1332.96 69.3246C1344.22 79.1485 1358.93 96.2508 1360.02 111.777C1356.26 120.892 1353.38 138.037 1345.98 144.618C1322.03 148.709 1299.65 146.7 1276.05 141.777C1265.54 136.871 1253.51 134.364 1242.73 129.761C1220.82 120.406 1198.81 105.835 1175.42 100.73C1179.87 98.5065 1183.28 92.7335 1186.34 88.9291C1206.15 64.262 1232.4 47.4672 1264.05 43.9991Z"/>
	<path transform="scale(0.285156 0.285156)" d="M1257.39 107.994C1264.29 108.101 1295.8 121.376 1307.73 124.111C1315.31 125.847 1332.9 125.849 1336.18 127.094C1337.43 127.566 1337.32 127.863 1337.83 129.088L1336.33 131.112C1335.47 131.377 1335.82 131.307 1334.85 131.43C1319.74 133.351 1269.82 121.212 1258.49 111.805C1257.19 110.72 1257.52 109.62 1257.39 107.994Z"/>
	<path transform="scale(0.285156 0.285156)" d="M1285.85 64.439L1286.82 64.4093C1293.53 64.1685 1302.9 72.1789 1308.01 76.3534C1315.14 82.1768 1338.63 102.852 1339.53 111.879L1337.77 113.896L1337.36 114.103C1334.04 112.879 1320.28 94 1316.26 90.0217C1307.28 81.147 1295.08 75.52 1287.07 68.2508C1285.6 66.9147 1285.9 66.2742 1285.85 64.439Z"/>
	<path fill="#F7DCBF" transform="scale(0.285156 0.285156)" d="M1221.12 126.665C1227.63 126.447 1243.63 135.81 1250.63 138.466C1257.61 141.109 1264.9 143.372 1272.07 145.429C1288.01 150.003 1304.13 152.117 1320.68 152.422C1321.41 155.571 1320.95 159.7 1319.27 162.507C1316.24 167.562 1311.55 165.37 1307.04 166.5L1306.66 168.842L1308.06 170.517C1311.16 171.631 1314.5 171.771 1317.62 170.565C1324.85 167.771 1323.47 159.39 1325.86 153.542C1328.63 151.564 1330.54 152.05 1333.89 151.993C1340.84 157.547 1347.98 160.722 1355.88 164.596C1356.05 165.363 1356.06 165.926 1355.79 166.677C1351.89 177.424 1329.31 204.997 1319.38 210.233C1319.16 205.894 1316.63 202.669 1313.72 199.682C1312.93 203.727 1309.12 207.651 1306.04 210.229C1305.95 210.971 1305.8 211.57 1305.38 212.204C1298.16 223.097 1282.73 232.43 1269.91 234.572C1263.24 232.552 1257.01 229.671 1250.82 226.529C1255.53 224.333 1259.06 221.634 1261.84 217.153C1265.34 211.494 1268.23 201.996 1266.07 195.392C1265.37 193.258 1264.58 193.011 1262.68 192.225C1255.83 193.218 1245.3 211.664 1236.86 216.241C1236.65 216.354 1236.44 216.463 1236.23 216.574C1235.41 213.384 1229.53 208.053 1227.3 205.305C1222.18 203.937 1217.48 202.846 1212.48 200.997C1214.87 197.464 1217.7 192.784 1218.24 188.497C1219.88 175.339 1205.44 164.227 1199.38 153.75C1196.55 148.85 1195.35 143.085 1191.86 138.577C1194.02 138.354 1196.21 138.109 1198.34 137.674C1204.54 136.408 1217.38 132.352 1221.12 126.665Z"/>
	<path transform="scale(0.285156 0.285156)" d="M1219.07 141.776C1224.46 141.195 1228.01 141.319 1233.05 143.365L1232.97 144.324C1227.75 146.924 1220.79 146.647 1215.08 148.55C1214.3 149.996 1213.53 151.797 1212 152.578C1210.77 153.208 1210.59 152.799 1209.37 152.366C1209.07 150.869 1208.8 150.248 1209.36 148.771C1210.94 144.619 1215.31 143.409 1219.07 141.776Z"/>
	<path transform="scale(0.285156 0.285156)" d="M1233.47 164.884C1235.05 164.478 1235.93 164.424 1237.55 164.677L1238.3 165.906C1238.15 166.5 1238.11 166.813 1237.84 167.334C1235.51 171.859 1228.3 174.483 1223.85 175.867L1221.76 175.567L1220.92 174.114C1223.54 169.706 1230.75 169.519 1233.47 164.884Z"/>
	<path fill="#F7DCBF" transform="scale(0.285156 0.285156)" d="M1545.02 811.113C1547.85 810.82 1551.09 810.051 1553.75 811.215C1554.38 818.771 1552.84 826.783 1552.49 834.393C1551.71 851.531 1551.01 868.868 1551.19 886.019C1551.25 892.205 1553.91 914.59 1552.73 917.952C1551.49 921.871 1547.07 925.003 1543.84 927.279C1537.31 931.893 1530.1 935.683 1523.02 939.381C1503.3 949.681 1487.73 953.982 1465.57 950.191C1462.35 948.256 1458.97 946.887 1455.5 945.473C1460.32 943.481 1465.28 939.375 1469.62 936.461C1483.46 927.183 1501.76 916.165 1508.39 899.974C1509.96 896.135 1510.44 891.823 1510.61 887.711C1510.99 878.256 1508.46 819.1 1505.7 812.614C1518.84 812.62 1531.97 812.849 1545.02 811.113Z"/>
	<path fill="#F7DCBF" transform="scale(0.285156 0.285156)" d="M1440.8 803.109C1446.52 802.658 1473.49 809.219 1480.79 810.631C1483.43 816.908 1478.79 868.489 1478.9 879.499C1478.97 886.632 1482.06 896.395 1480.31 903.065C1474.71 910.018 1437.22 919.176 1427.37 920.865C1422.86 922.636 1416.28 923.071 1411.4 923.336C1403.63 923.757 1394.37 923.156 1388.32 917.739C1388.19 913.715 1427.44 900.477 1434.69 889.113C1441.86 877.891 1443.54 816.677 1440.8 803.109Z"/>
	<path fill="#F7DCBF" transform="scale(0.285156 0.285156)" d="M1212.09 323.984C1223.21 322.428 1257.34 357.031 1271.18 362.523C1272.65 363.105 1272.55 363.103 1273.99 362.49C1272.93 356.49 1255.29 346.252 1249.97 342.389C1265.59 343.763 1281.78 356.878 1290.62 369.217C1294.18 374.199 1296.46 379.951 1301.32 383.891C1302.24 384.638 1302.57 385.23 1302.66 386.426C1303.11 391.987 1301.91 397.857 1302.1 403.483C1302.3 409.312 1304.12 415.905 1305.07 421.738C1304.27 422.387 1303.74 422.594 1302.72 422.764C1270.07 428.212 1251.24 392.876 1229.02 376.682C1228.84 376.552 1228.66 376.428 1228.48 376.302C1227.62 373.812 1204.49 339.273 1202.39 337.161C1214.37 342.456 1239.2 376.509 1248.45 376.903C1244.61 365.417 1214.11 345.628 1210.33 331.252L1211.63 331.306L1210.5 331.475C1218.3 332.311 1238.47 353.483 1245.53 359.434C1248.33 361.797 1251.95 365.328 1255.78 365C1256.08 357.596 1215.68 330.792 1212.53 324.89C1212.37 324.593 1212.23 324.286 1212.09 323.984Z"/>
	<path fill="#ECA69D" transform="scale(0.285156 0.285156)" d="M1554.53 923.11C1554.84 923.204 1555.16 923.246 1555.44 923.393C1557.15 924.282 1557.81 926.894 1558.37 928.629C1559.75 932.873 1560.36 939.46 1558.24 943.495C1556.14 947.49 1525.53 960.297 1520.5 962.337C1494.43 972.898 1462.3 979.582 1435.5 968.244C1434.76 967.215 1434.52 966.103 1434.19 964.9C1436.12 957.143 1446.23 954.091 1450.41 947.786C1454.12 949.115 1457.62 951.703 1461.27 953.345C1470.86 957.654 1481.95 957.631 1492.21 956.066C1509.53 953.426 1544.19 937.089 1554.53 923.11Z"/>
	<path fill="#ECA69D" transform="scale(0.285156 0.285156)" d="M1482.63 907.11L1484.15 907.462C1486.34 910.1 1486.92 914.137 1486.82 917.486C1486.71 917.711 1486.63 917.956 1486.49 918.16C1481.66 924.99 1464.26 931.816 1456.26 934.212C1434.72 940.662 1400.31 948.286 1378.36 943.575C1372.37 942.29 1367.18 939.331 1361.85 936.444C1361.04 934.92 1360.62 933.831 1360.42 932.108C1362.86 925.388 1374.47 921.33 1380.4 918.315C1382.31 919.142 1383.49 920.796 1385.18 921.953C1391.03 925.959 1397.93 928.141 1405.02 928.223C1422.19 928.427 1470.71 918.749 1482.63 907.11Z"/>
	<path fill="#A98E8E" transform="scale(0.285156 0.285156)" d="M1556.32 341.776L1558.74 342.398C1560.05 343.872 1561.31 345.351 1562.18 347.132C1563.62 350.098 1564.95 353.958 1563.88 357.184C1563.9 357.329 1563.92 357.472 1563.93 357.617C1564.33 363.831 1556.96 373.024 1552.94 377.307C1528.93 402.863 1488.14 417.5 1453.64 418.67L1448.47 418.694L1448.45 418.076C1451.29 416.58 1454.15 415.09 1456.93 413.487C1460.55 411.403 1465.62 407.976 1466.74 403.767C1493.97 399.135 1527.05 383.321 1545.73 362.607C1550.32 357.521 1556.68 348.915 1556.32 341.776Z"/>
	<path fill="#C1D6B2" transform="scale(0.285156 0.285156)" d="M1485.96 811.999C1490.61 811.157 1495.68 812.088 1500.35 812.56C1500.43 812.703 1500.5 812.846 1500.58 812.988C1503.37 818.052 1506.27 888.686 1504.56 896.537C1503.59 900.974 1500.24 905.563 1496.46 908C1496.38 908.327 1496.32 908.662 1496.21 908.982C1495.4 911.328 1492.09 912.885 1490.08 914.054C1492.45 907.952 1484.67 895.911 1484.15 888.77C1482.83 870.92 1488.87 823.235 1485.96 811.999Z"/>
	<path fill="#FEFEFD" transform="scale(0.285156 0.285156)" d="M1369.94 109.751C1372.21 110.031 1373.63 111.211 1375.3 112.718C1385.4 121.801 1388.54 137.01 1383.52 149.527C1382.44 152.218 1379.6 155.21 1379.76 158.087L1381.55 158.81C1384.19 158.199 1386.05 155.658 1387.45 153.449C1389.4 150.388 1391.53 145.865 1390.7 142.179C1391.14 142.274 1391.58 142.364 1392.02 142.479C1396.86 143.757 1405.02 145.737 1407.6 150.297C1407.85 154.162 1407.83 158.818 1405.39 162.029C1399.19 163.167 1378.64 159.673 1369.22 160.038C1364.58 159.971 1359.75 159.108 1355.13 158.584C1354.3 154.818 1351.84 149.636 1349.02 147.03C1357.39 140.873 1358.94 127.034 1363.64 118.277C1364.62 116.468 1365.09 115.73 1367.1 115.162C1376.64 125.068 1364.66 137.545 1365.57 146.211L1367.34 147.469C1369.44 146.425 1371.54 141.52 1372.38 139.452C1375.05 132.836 1377.54 123.296 1373.97 116.583C1372.87 114.516 1371.05 112.74 1370.22 110.558C1370.12 110.291 1370.03 110.02 1369.94 109.751Z"/>
	<path fill="#FEFEFD" transform="scale(0.285156 0.285156)" d="M1533.51 227.109C1537.93 227.149 1543.35 232.785 1546.6 235.575C1552.23 240.416 1575.2 260.668 1575.67 266.884C1571.44 270.073 1563.19 271.449 1558.02 272.598C1554.37 274.046 1550.31 274.507 1546.45 275.163C1546.25 269.407 1523.18 241.649 1518.27 236.114C1522.04 235.546 1525.91 234.974 1529.2 232.904C1531.39 231.526 1532.97 229.681 1533.51 227.109Z"/>
	<path fill="#FEFEFD" transform="scale(0.285156 0.285156)" d="M1361.23 165.776C1366.26 165.093 1371.58 165.573 1376.66 165.718C1377.45 169.094 1376.54 171.984 1375.51 175.191C1371.32 188.232 1355.94 217.192 1343.57 223.56C1339.01 223.769 1331.68 212.794 1327.33 209.976C1328.28 209.287 1329.24 208.604 1330.13 207.833C1336.72 202.126 1360.54 174.41 1361.23 165.776Z"/>
	<path fill="#FEFEFD" transform="scale(0.285156 0.285156)" d="M1349.52 354.222C1352.73 354.056 1355.96 354.05 1359.17 353.974C1362.55 356.265 1367.1 359.37 1368.32 363.423C1360.49 368.524 1320.97 375.379 1310.08 377.671C1307.81 378.743 1304.84 379.11 1302.38 379.685C1300.4 374.524 1297.11 368.484 1292.68 365.086C1311.8 362.822 1330.36 356.124 1349.52 354.222Z"/>
	<path fill="#FEFEFD" transform="scale(0.285156 0.285156)" d="M1381.58 106.221C1384.47 106.003 1387.48 106.078 1390.36 106.374C1399.56 107.321 1416.69 111.088 1422.64 118.406C1417.4 120.318 1411.64 121.575 1406.27 123.111C1403.18 126.193 1394.06 131.481 1389.99 133.994C1390.03 133.856 1390.06 133.718 1390.1 133.582C1393.28 122.762 1379.55 115.314 1378.65 107.219L1381.58 106.221Z"/>
	<path fill="#FEFEFD" transform="scale(0.285156 0.285156)" d="M1412.32 150.665C1418.39 150.718 1432.57 156.242 1437.45 159.998C1439.43 161.519 1439.74 162.408 1440.09 164.732C1439.27 167.178 1438.35 168.276 1436.36 169.895L1435.97 170.642C1432.51 171.522 1415.62 165.273 1411.76 163.645C1411.92 159.35 1413.42 155.765 1412.49 151.417C1412.44 151.166 1412.38 150.916 1412.32 150.665Z"/>
	<path fill="#FEFEFD" transform="scale(0.285156 0.285156)" d="M1494.49 195.111C1499.41 197.108 1512.23 206.793 1514.75 211.169C1514.74 211.881 1514.77 211.84 1514.59 212.668C1513.79 216.381 1510.85 218.966 1507.8 220.891L1507.43 221.579C1503.9 222.34 1492 207.979 1487.93 205.521C1491.46 203.05 1493.07 199.012 1494.49 195.111Z"/>
	<path fill="#FDE192" transform="scale(0.285156 0.285156)" d="M1201.99 354.217C1202.28 354.364 1202.57 354.5 1202.85 354.659C1206.72 356.85 1214.05 367.844 1217.53 371.697C1224.26 379.168 1251.76 402.918 1253.79 409.336C1252.29 409.204 1250.46 408.648 1249.06 408.077C1235.28 402.456 1208.39 368.25 1201.99 354.217Z"/>
	<path fill="#FEFEFD" transform="scale(0.285156 0.285156)" d="M1444.32 163.999C1450.17 164.068 1462.12 171.867 1466.39 175.887C1466.68 177.081 1466.55 178.356 1466.31 179.557C1465.79 182.097 1464.95 183.817 1462.76 185.335C1456.72 180.283 1448.56 176.93 1441.44 173.707C1443.46 170.728 1444.43 167.588 1444.32 163.999Z"/>
	<path fill="#FEFEFD" transform="scale(0.285156 0.285156)" d="M1470.85 179.999C1471.29 179.952 1471.45 179.921 1471.94 179.943C1476.7 180.155 1486.38 188.406 1489.81 191.852C1489.83 191.989 1489.87 192.124 1489.88 192.263C1489.93 195.093 1487.25 197.715 1485.37 199.528L1485.13 200.283C1481.64 200.332 1471.47 190.792 1467.29 188.685C1468.02 187.95 1468.76 187.182 1469.33 186.313C1470.68 184.26 1471.24 182.416 1470.85 179.999Z"/>
	<path fill="#FEFEFD" transform="scale(0.285156 0.285156)" d="M1258.93 198.661L1261.04 199.491C1262.43 202.295 1261.91 205.692 1261.01 208.592C1259.41 213.711 1255.43 220.051 1250.28 222.257C1247.42 223.486 1246.5 222.827 1243.84 221.782C1243.41 221.238 1242.76 220.55 1242.5 219.913C1241 216.321 1257.29 204.428 1258.93 198.661Z"/>
	<path fill="#FEFEFD" transform="scale(0.285156 0.285156)" d="M1518.32 215.553C1519.14 215.463 1520.02 215.396 1520.83 215.573C1524.21 216.302 1528.01 220.201 1529.78 223.041C1529.72 223.485 1529.73 223.598 1529.51 224.062C1527.68 227.917 1523.65 229.9 1519.76 230.924C1519.59 230.962 1519.42 231.013 1519.25 231.039C1517.03 231.366 1513.37 231.118 1511.51 229.844C1509.88 224.554 1518.14 221.55 1518.34 216.459C1518.35 216.157 1518.33 215.855 1518.32 215.553Z"/>
	<path fill="#FEFEFD" transform="scale(0.285156 0.285156)" d="M1322.91 214.642L1325.6 215.015C1329.4 218.331 1334.73 222.384 1336.51 227.233L1334.11 228.55L1333.04 229.73L1331.47 229.54C1327.97 225.715 1324.22 219.659 1322.91 214.642Z"/>
	<path fill="#FDE192" transform="scale(0.285156 0.285156)" d="M1200.39 316.879C1201.1 316.819 1201.83 316.757 1202.55 316.782C1205.12 316.87 1206.72 317.828 1208.35 319.622C1208.1 321.971 1207.71 322.093 1206.15 323.749C1204.66 322.045 1201.84 320.424 1200.02 318.995L1200.39 316.879Z"/>
	<path fill="#FEFEFD" transform="scale(0.285156 0.285156)" d="M1099.76 0L1150.56 0C1151.16 3.11207 1150.17 4.94174 1149.1 7.8955C1141.59 28.5371 1132.34 48.6577 1124.27 69.1036C1099.05 132.975 1073.34 196.655 1047.16 260.138L1000.39 375.605C991.778 396.583 983.492 417.775 973.676 438.225C973.501 438.274 973.32 438.309 973.149 438.372C962.595 442.223 960.617 433.156 942.429 442.334C940.732 440.707 938.904 438.782 936.861 437.614C933.552 435.722 929.738 437.464 926.389 438.485C927.367 430.785 932.207 421.552 935.068 414.241L958.991 354.585C989.229 277.134 1019.93 199.863 1051.08 122.777C1066.57 84.2027 1083.04 45.9188 1098.07 7.17493C1099.02 4.70925 1100.11 2.69327 1099.76 0Z"/>
</svg>
